<svg xmlns="http://www.w3.org/2000/svg" xmlns:xlink="http://www.w3.org/1999/xlink" id="processonSvg1000" viewBox="429.625 274.0 566.75 226.0" width="566.75" height="226.0"><defs id="ProcessOnDefs1001"><marker id="ProcessOnMarker1007" markerUnits="userSpaceOnUse" orient="auto" markerWidth="16.23606797749979" markerHeight="10.550836550532098" viewBox="-1.0 -1.3763819204711736 16.23606797749979 10.550836550532098" refX="-1.0" refY="3.8990363547948754"><path id="ProcessOnPath1008" d="M12.0 3.8990363547948754L0.0 7.798072709589751V0.0Z" stroke="#323232" stroke-width="2.0" fill="#323232" transform="matrix(1.0,0.0,0.0,1.0,0.0,0.0)"/></marker><marker id="ProcessOnMarker1033" markerUnits="userSpaceOnUse" orient="auto" markerWidth="16.23606797749979" markerHeight="10.550836550532098" viewBox="-1.0 -1.3763819204711736 16.23606797749979 10.550836550532098" refX="-1.0" refY="3.8990363547948754"><path id="ProcessOnPath1034" d="M12.0 3.8990363547948754L0.0 7.798072709589751V0.0Z" stroke="#323232" stroke-width="2.0" fill="#323232" transform="matrix(1.0,0.0,0.0,1.0,0.0,0.0)"/></marker></defs><g id="ProcessOnG1002"><path id="ProcessOnPath1003" d="M429.625 274.0H996.375V500.0H429.625V274.0Z" fill="none"/><g id="ProcessOnG1004"><g id="ProcessOnG1005"><path id="ProcessOnPath1006" d="M708.25 370.0L665.8125 370.0L665.8125 370.0L638.6110679774998 370.0" stroke="#323232" stroke-width="2.0" stroke-dasharray="none" fill="none" marker-end="url(#ProcessOnMarker1007)"/></g><g id="ProcessOnG1009" transform="matrix(1.0,0.0,0.0,1.0,449.625,294.0)" opacity="1.0"><path id="ProcessOnPath1010" d="M0.0 4.0Q0.0 0.0 4.0 0.0L169.75 0.0Q173.75 0.0 173.75 4.0L173.75 148.0Q173.75 152.0 169.75 152.0L4.0 152.0Q0.0 152.0 0.0 148.0Z" stroke="#dadada" stroke-width="2.0" stroke-dasharray="none" opacity="1.0" fill="#ffffff"/><path id="ProcessOnPath1011" d="M0.0 30.0L0.0 4.0Q0.0 0.0 4.0 0.0L169.75 0.0Q173.75 0.0 173.75 4.0L173.75 30.0Z" stroke="#dadada" stroke-width="2.0" stroke-dasharray="none" opacity="1.0" fill="#dadada"/><path id="ProcessOnPath1012" d="M10.0 15.0C10.0 10.0 18.0 10.0 18.0 15.0C18.0 20.0 10.0 20.0 10.0 15.0Z" stroke="none" stroke-width="0.0" stroke-dasharray="none" opacity="1.0" fill="#ffffff"/><path id="ProcessOnPath1013" d="M23.0 15.0C23.0 10.0 31.0 10.0 31.0 15.0C31.0 20.0 23.0 20.0 23.0 15.0Z" stroke="none" stroke-width="0.0" stroke-dasharray="none" opacity="1.0" fill="#ffffff"/><path id="ProcessOnPath1014" d="M36.0 15.0C36.0 10.0 44.0 10.0 44.0 15.0C44.0 20.0 36.0 20.0 36.0 15.0Z" stroke="none" stroke-width="0.0" stroke-dasharray="none" opacity="1.0" fill="#ffffff"/><path id="ProcessOnPath1015" d="M55.0 9.0Q55.0 5.0 59.0 5.0L164.75 5.0Q168.75 5.0 168.75 9.0L168.75 21.0Q168.75 25.0 164.75 25.0L59.0 25.0Q55.0 25.0 55.0 21.0Z" stroke="none" stroke-width="0.0" stroke-dasharray="none" opacity="1.0" fill="#ffffff"/><path id="ProcessOnPath1016" d="M0.0 0.0L173.75 0.0L173.75 152.0L0.0 152.0Z" stroke="none" stroke-width="0.0" stroke-dasharray="none" opacity="1.0" fill="none"/><g id="ProcessOnG1017" transform="matrix(1.0,0.0,0.0,1.0,60.0,6.875)"><text id="ProcessOnText1018" fill="#000000" font-size="13" x="0.0" y="13.325" font-family="Tahoma" font-weight="normal" font-style="normal" text-decoration="none" family="Tahoma" text-anchor="start" size="13">my-site</text></g></g><g id="ProcessOnG1019" transform="matrix(1.0,0.0,0.0,1.0,490.0,338.5)" opacity="1.0"><path id="ProcessOnPath1020" d="M0.0 0.0L93.0 0.0L93.0 90.5L0.0 90.5Z" stroke="#8a8a8a" stroke-width="2.0" stroke-dasharray="none" opacity="1.0" fill="#ffffff"/><path id="ProcessOnPath1021" d="M61.53846153846153 21.3125C76.53846153846153 21.3125 76.53846153846153 43.3125 61.53846153846153 43.3125C46.53846153846153 43.3125 46.53846153846153 21.3125 61.53846153846153 21.3125Z" stroke="#505050" stroke-width="1.0" stroke-dasharray="none" opacity="1.0" fill="#505050"/><path id="ProcessOnPath1022" d="M30.0 60.5L31.0 40.0L46.5 45.25L58.125 36.2L63.0 60.5Z" stroke="none" stroke-width="0.0" stroke-dasharray="none" opacity="1.0" fill="#505050"/><path id="ProcessOnPath1023" d="M0.0 0.0L93.0 0.0L93.0 90.5L0.0 90.5Z" stroke="none" stroke-width="0.0" stroke-dasharray="none" opacity="1.0" fill="none"/></g><g id="ProcessOnG1024" transform="matrix(1.0,0.0,0.0,1.0,708.25,294.0)" opacity="1.0"><path id="ProcessOnPath1025" d="M0.0 0.0L88.875 0.0L88.875 152.0L0.0 152.0Z" stroke="#323232" stroke-width="2.0" stroke-dasharray="none" opacity="1.0" fill="#e5e5e5"/></g><g id="ProcessOnG1026" transform="matrix(1.0,0.0,0.0,1.0,886.375,336.0)" opacity="1.0"><path id="ProcessOnPath1027" d="M10.799999999999999 49.0C-9.0 35.0 3.6 24.5 8.1 21.0C6.300000000000001 3.5 28.8 0.0 37.8 7.0C45.0 -3.5 67.5 0.0 67.5 10.5C85.5 7.0 92.7 21.0 85.5 38.5C91.8 52.5 85.5 70.0 64.8 63.0C60.300000000000004 72.10000000000001 42.3 72.10000000000001 37.8 63.0C28.8 70.0 10.799999999999999 66.5 10.799999999999999 49.0Z" stroke="#323232" stroke-width="2.0" stroke-dasharray="none" opacity="1.0" fill="#ffffff"/><g id="ProcessOnG1028" transform="matrix(1.0,0.0,0.0,1.0,10.0,18.75)"><text id="ProcessOnText1029" fill="#000000" font-size="13" x="34.0" y="13.325" font-family="Tahoma" font-weight="normal" font-style="normal" text-decoration="none" family="Tahoma" text-anchor="middle" size="13">unsafe</text><text id="ProcessOnText1030" fill="#000000" font-size="13" x="34.0" y="29.575" font-family="Tahoma" font-weight="normal" font-style="normal" text-decoration="none" family="Tahoma" text-anchor="middle" size="13">free-host</text></g></g><g id="ProcessOnG1031"><path id="ProcessOnPath1032" d="M886.375 371.0L841.75 371.0L841.75 370.0L812.3610679774998 370.0" stroke="#323232" stroke-width="2.0" stroke-dasharray="none" fill="none" marker-end="url(#ProcessOnMarker1033)"/></g><g id="ProcessOnG1035" transform="matrix(1.0,0.0,0.0,1.0,806.875,386.0)" opacity="1.0"><path id="ProcessOnPath1036" d="M0.0 0.0L82.5 0.0L82.5 29.0L0.0 29.0Z" stroke="none" stroke-width="0.0" stroke-dasharray="none" opacity="1.0" fill="none"/><g id="ProcessOnG1037" transform="matrix(1.0,0.0,0.0,1.0,0.0,6.375)"><text id="ProcessOnText1038" fill="#000000" font-size="13" x="40.25" y="13.325" font-family="Tahoma" font-weight="normal" font-style="normal" text-decoration="none" family="Tahoma" text-anchor="middle" size="13">encrypted</text></g></g><g id="ProcessOnG1039" transform="matrix(1.0,0.0,0.0,1.0,650.625,347.5)" opacity="1.0"><path id="ProcessOnPath1040" d="M0.0 20.0C0.0 -6.666666666666667 40.0 -6.666666666666667 40.0 20.0C40.0 46.666666666666664 0.0 46.666666666666664 0.0 20.0Z" stroke="#323232" stroke-width="2.0" stroke-dasharray="none" opacity="1.0" fill="#e5e5e5"/></g><g id="ProcessOnG1041" transform="matrix(1.0,0.0,0.0,1.0,628.625,387.5)" opacity="1.0"><path id="ProcessOnPath1042" d="M0.0 0.0L82.5 0.0L82.5 29.0L0.0 29.0Z" stroke="none" stroke-width="0.0" stroke-dasharray="none" opacity="1.0" fill="none"/><g id="ProcessOnG1043" transform="matrix(1.0,0.0,0.0,1.0,0.0,6.375)"><text id="ProcessOnText1044" fill="#000000" font-size="13" x="40.25" y="13.325" font-family="Tahoma" font-weight="normal" font-style="normal" text-decoration="none" family="Tahoma" text-anchor="middle" size="13">plain</text></g></g><g id="ProcessOnG1045" transform="matrix(1.0,0.0,0.0,1.0,828.125,347.5)" opacity="1.0"><path id="ProcessOnPath1046" d="M0.0 20.0C0.0 -6.666666666666667 40.0 -6.666666666666667 40.0 20.0C40.0 46.666666666666664 0.0 46.666666666666664 0.0 20.0Z" stroke="none" stroke-width="0.0" stroke-dasharray="none" opacity="1.0" fill="#323232"/></g><g id="ProcessOnG1047" transform="matrix(1.0,0.0,0.0,1.0,716.578125,356.25)" opacity="1.0"><path id="ProcessOnPath1048" d="M0.0 0.0L71.0 0.0L71.0 28.0L0.0 28.0Z" stroke="#000000" stroke-width="1.0" stroke-dasharray="none" opacity="1.0" fill="#ffffff"/><g id="ProcessOnG1049" transform="matrix(1.0,0.0,0.0,1.0,10.0,5.875)"><text id="ProcessOnText1050" fill="#000000" font-size="13" x="24.5" y="13.325" font-family="Tahoma" font-weight="bold" font-style="normal" text-decoration="none" family="Tahoma" text-anchor="middle" size="13">decrypt</text></g></g><g id="ProcessOnG1051" transform="matrix(1.0,0.0,0.0,1.0,698.5,446.0)" opacity="1.0"><path id="ProcessOnPath1052" d="M0.0 0.0L106.0 0.0L106.0 34.0L0.0 34.0Z" stroke="none" stroke-width="0.0" stroke-dasharray="none" opacity="1.0" fill="none"/><g id="ProcessOnG1053" transform="matrix(1.0,0.0,0.0,1.0,0.0,8.875)"><text id="ProcessOnText1054" fill="#000000" font-size="13" x="52.0" y="13.325" font-family="Tahoma" font-weight="normal" font-style="normal" text-decoration="none" family="Tahoma" text-anchor="middle" size="13">Service Worker</text></g></g></g></g></svg>