<svg xmlns="http://www.w3.org/2000/svg" xmlns:xlink="http://www.w3.org/1999/xlink" id="processonSvg1000" viewBox="272.5 -86.0 417.0 342.0" width="417.0" height="342.0"><defs id="ProcessOnDefs1001"/><g id="ProcessOnG1002"><path id="ProcessOnPath1003" d="M272.5 -86.0H689.5V256.0H272.5V-86.0Z" fill="none"/><g id="ProcessOnG1004"><g id="ProcessOnG1005" transform="matrix(1.0,0.0,0.0,1.0,292.5,-66.0)" opacity="1.0"><path id="ProcessOnPath1006" d="M0.0 4.0Q0.0 0.0 4.0 0.0L373.0 0.0Q377.0 0.0 377.0 4.0L377.0 147.0Q377.0 151.0 373.0 151.0L4.0 151.0Q0.0 151.0 0.0 147.0Z" stroke="#dadada" stroke-width="2.0" stroke-dasharray="none" opacity="1.0" fill="#ffffff"/><path id="ProcessOnPath1007" d="M0.0 30.0L0.0 4.0Q0.0 0.0 4.0 0.0L373.0 0.0Q377.0 0.0 377.0 4.0L377.0 30.0Z" stroke="#dadada" stroke-width="2.0" stroke-dasharray="none" opacity="1.0" fill="#dadada"/><path id="ProcessOnPath1008" d="M10.0 15.0C10.0 10.0 18.0 10.0 18.0 15.0C18.0 20.0 10.0 20.0 10.0 15.0Z" stroke="none" stroke-width="0.0" stroke-dasharray="none" opacity="1.0" fill="#ffffff"/><path id="ProcessOnPath1009" d="M23.0 15.0C23.0 10.0 31.0 10.0 31.0 15.0C31.0 20.0 23.0 20.0 23.0 15.0Z" stroke="none" stroke-width="0.0" stroke-dasharray="none" opacity="1.0" fill="#ffffff"/><path id="ProcessOnPath1010" d="M36.0 15.0C36.0 10.0 44.0 10.0 44.0 15.0C44.0 20.0 36.0 20.0 36.0 15.0Z" stroke="none" stroke-width="0.0" stroke-dasharray="none" opacity="1.0" fill="#ffffff"/><path id="ProcessOnPath1011" d="M55.0 9.0Q55.0 5.0 59.0 5.0L368.0 5.0Q372.0 5.0 372.0 9.0L372.0 21.0Q372.0 25.0 368.0 25.0L59.0 25.0Q55.0 25.0 55.0 21.0Z" stroke="none" stroke-width="0.0" stroke-dasharray="none" opacity="1.0" fill="#ffffff"/><path id="ProcessOnPath1012" d="M0.0 0.0L377.0 0.0L377.0 151.0L0.0 151.0Z" stroke="none" stroke-width="0.0" stroke-dasharray="none" opacity="1.0" fill="none"/><g id="ProcessOnG1013" transform="matrix(1.0,0.0,0.0,1.0,60.0,6.875)"><text id="ProcessOnText1014" fill="#000000" font-size="13" x="152.5" y="13.325" font-family="Tahoma" font-weight="normal" font-style="normal" text-decoration="none" family="Tahoma" text-anchor="middle" size="13">http://my-host.net</text></g></g><g id="ProcessOnG1015" transform="matrix(1.0,0.0,0.0,1.0,321.5,-21.5)" opacity="1.0"><path id="ProcessOnPath1016" d="M0.0 0.0L93.0 0.0L93.0 90.5L0.0 90.5Z" stroke="#8a8a8a" stroke-width="2.0" stroke-dasharray="none" opacity="1.0" fill="#ffffff"/><path id="ProcessOnPath1017" d="M61.53846153846153 21.3125C76.53846153846153 21.3125 76.53846153846153 43.3125 61.53846153846153 43.3125C46.53846153846153 43.3125 46.53846153846153 21.3125 61.53846153846153 21.3125Z" stroke="#505050" stroke-width="1.0" stroke-dasharray="none" opacity="1.0" fill="#505050"/><path id="ProcessOnPath1018" d="M30.0 60.5L31.0 40.0L46.5 45.25L58.125 36.2L63.0 60.5Z" stroke="none" stroke-width="0.0" stroke-dasharray="none" opacity="1.0" fill="#505050"/><path id="ProcessOnPath1019" d="M0.0 0.0L93.0 0.0L93.0 90.5L0.0 90.5Z" stroke="none" stroke-width="0.0" stroke-dasharray="none" opacity="1.0" fill="none"/></g><g id="ProcessOnG1020" transform="matrix(1.0,0.0,0.0,1.0,434.5,-21.5)" opacity="1.0"><path id="ProcessOnPath1021" d="M0.0 0.0L93.0 0.0L93.0 90.5L0.0 90.5Z" stroke="#8a8a8a" stroke-width="2.0" stroke-dasharray="none" opacity="1.0" fill="#ffffff"/><path id="ProcessOnPath1022" d="M61.53846153846153 21.3125C76.53846153846153 21.3125 76.53846153846153 43.3125 61.53846153846153 43.3125C46.53846153846153 43.3125 46.53846153846153 21.3125 61.53846153846153 21.3125Z" stroke="#505050" stroke-width="1.0" stroke-dasharray="none" opacity="1.0" fill="#505050"/><path id="ProcessOnPath1023" d="M30.0 60.5L31.0 40.0L46.5 45.25L58.125 36.2L63.0 60.5Z" stroke="none" stroke-width="0.0" stroke-dasharray="none" opacity="1.0" fill="#505050"/><path id="ProcessOnPath1024" d="M0.0 0.0L93.0 0.0L93.0 90.5L0.0 90.5Z" stroke="none" stroke-width="0.0" stroke-dasharray="none" opacity="1.0" fill="none"/></g><g id="ProcessOnG1025" transform="matrix(1.0,0.0,0.0,1.0,547.5,-21.5)" opacity="1.0"><path id="ProcessOnPath1026" d="M0.0 0.0L93.0 0.0L93.0 90.5L0.0 90.5Z" stroke="#8a8a8a" stroke-width="2.0" stroke-dasharray="none" opacity="1.0" fill="#ffffff"/><path id="ProcessOnPath1027" d="M61.53846153846153 21.3125C76.53846153846153 21.3125 76.53846153846153 43.3125 61.53846153846153 43.3125C46.53846153846153 43.3125 46.53846153846153 21.3125 61.53846153846153 21.3125Z" stroke="#505050" stroke-width="1.0" stroke-dasharray="none" opacity="1.0" fill="#505050"/><path id="ProcessOnPath1028" d="M30.0 60.5L31.0 40.0L46.5 45.25L58.125 36.2L63.0 60.5Z" stroke="none" stroke-width="0.0" stroke-dasharray="none" opacity="1.0" fill="#505050"/><path id="ProcessOnPath1029" d="M0.0 0.0L93.0 0.0L93.0 90.5L0.0 90.5Z" stroke="none" stroke-width="0.0" stroke-dasharray="none" opacity="1.0" fill="none"/></g><g id="ProcessOnG1030" transform="matrix(1.0,0.0,0.0,1.0,292.5,100.0)" opacity="1.0"><path id="ProcessOnPath1031" d="M0.0 0.0L361.0 0.0L377.0 16.0L377.0 136.0L0.0 136.0L0.0 0.0Z" stroke="none" stroke-width="0.0" stroke-dasharray="none" opacity="1.0" fill="#ffffaa"/><path id="ProcessOnPath1032" d="M361.0 0.0L361.0 16.0L377.0 16.0Z" stroke="none" stroke-width="0.0" stroke-dasharray="none" opacity="1.0" fill="#cdcd78"/><path id="ProcessOnPath1033" d="M0.0 0.0L361.0 0.0L377.0 16.0L377.0 136.0L0.0 136.0L0.0 0.0Z" stroke="none" stroke-width="0.0" stroke-dasharray="none" opacity="1.0" fill="none"/><g id="ProcessOnG1034" transform="matrix(1.0,0.0,0.0,1.0,10.0,10.0)"><text id="ProcessOnText1035" fill="#000000" font-size="13" x="0.0" y="13.325" font-family="Tahoma" font-weight="normal" font-style="normal" text-decoration="none" family="Tahoma" text-anchor="start" size="13">http://bbs.xxx.com/upload/xxxxxxx.jpg</text><text id="ProcessOnText1036" fill="#000000" font-size="13" x="0.0" y="29.575" font-family="Tahoma" font-weight="normal" font-style="normal" text-decoration="none" family="Tahoma" text-anchor="start" size="13"></text><text id="ProcessOnText1037" fill="#000000" font-size="13" x="0.0" y="45.825" font-family="Tahoma" font-weight="normal" font-style="normal" text-decoration="none" family="Tahoma" text-anchor="start" size="13">http://photo.yyy.com/xxxxxxxxxxxx.jpg</text><text id="ProcessOnText1038" fill="#000000" font-size="13" x="0.0" y="62.075" font-family="Tahoma" font-weight="normal" font-style="normal" text-decoration="none" family="Tahoma" text-anchor="start" size="13"></text><text id="ProcessOnText1039" fill="#000000" font-size="13" x="0.0" y="78.325" font-family="Tahoma" font-weight="normal" font-style="normal" text-decoration="none" family="Tahoma" text-anchor="start" size="13">http://pan.zzz.com/album/xxxxxxxx.jpg</text><text id="ProcessOnText1040" fill="#000000" font-size="13" x="0.0" y="94.575" font-family="Tahoma" font-weight="normal" font-style="normal" text-decoration="none" family="Tahoma" text-anchor="start" size="13"></text><text id="ProcessOnText1041" fill="#000000" font-size="13" x="0.0" y="110.825" font-family="Tahoma" font-weight="normal" font-style="normal" text-decoration="none" family="Tahoma" text-anchor="start" size="13">......</text></g></g></g></g></svg>