<svg xmlns="http://www.w3.org/2000/svg" xmlns:xlink="http://www.w3.org/1999/xlink" id="processonSvg1000" viewBox="272.5 165.5 417.0 343.0" width="417.0" height="343.0"><defs id="ProcessOnDefs1001"><marker id="ProcessOnMarker1050" markerUnits="userSpaceOnUse" orient="auto" markerWidth="16.23606797749979" markerHeight="10.550836550532098" viewBox="-1.0 -1.3763819204711736 16.23606797749979 10.550836550532098" refX="15.23606797749979" refY="3.8990363547948754"><path id="ProcessOnPath1051" d="M12.0 3.8990363547948754L0.0 7.798072709589751V0.0Z" stroke="#323232" stroke-width="2.0" fill="#323232" transform="matrix(-1.0,1.2246467991473532E-16,-1.2246467991473532E-16,-1.0,14.23606797749979,7.798072709589751)"/></marker></defs><g id="ProcessOnG1002"><path id="ProcessOnPath1003" d="M272.5 165.5H689.5V508.5H272.5V165.5Z" fill="none"/><g id="ProcessOnG1004"><g id="ProcessOnG1005" transform="matrix(1.0,0.0,0.0,1.0,292.5,185.5)" opacity="1.0"><path id="ProcessOnPath1006" d="M0.0 4.0Q0.0 0.0 4.0 0.0L373.0 0.0Q377.0 0.0 377.0 4.0L377.0 147.0Q377.0 151.0 373.0 151.0L4.0 151.0Q0.0 151.0 0.0 147.0Z" stroke="#dadada" stroke-width="2.0" stroke-dasharray="none" opacity="1.0" fill="#ffffff"/><path id="ProcessOnPath1007" d="M0.0 30.0L0.0 4.0Q0.0 0.0 4.0 0.0L373.0 0.0Q377.0 0.0 377.0 4.0L377.0 30.0Z" stroke="#dadada" stroke-width="2.0" stroke-dasharray="none" opacity="1.0" fill="#dadada"/><path id="ProcessOnPath1008" d="M10.0 15.0C10.0 10.0 18.0 10.0 18.0 15.0C18.0 20.0 10.0 20.0 10.0 15.0Z" stroke="none" stroke-width="0.0" stroke-dasharray="none" opacity="1.0" fill="#ffffff"/><path id="ProcessOnPath1009" d="M23.0 15.0C23.0 10.0 31.0 10.0 31.0 15.0C31.0 20.0 23.0 20.0 23.0 15.0Z" stroke="none" stroke-width="0.0" stroke-dasharray="none" opacity="1.0" fill="#ffffff"/><path id="ProcessOnPath1010" d="M36.0 15.0C36.0 10.0 44.0 10.0 44.0 15.0C44.0 20.0 36.0 20.0 36.0 15.0Z" stroke="none" stroke-width="0.0" stroke-dasharray="none" opacity="1.0" fill="#ffffff"/><path id="ProcessOnPath1011" d="M55.0 9.0Q55.0 5.0 59.0 5.0L368.0 5.0Q372.0 5.0 372.0 9.0L372.0 21.0Q372.0 25.0 368.0 25.0L59.0 25.0Q55.0 25.0 55.0 21.0Z" stroke="none" stroke-width="0.0" stroke-dasharray="none" opacity="1.0" fill="#ffffff"/><path id="ProcessOnPath1012" d="M0.0 0.0L377.0 0.0L377.0 151.0L0.0 151.0Z" stroke="none" stroke-width="0.0" stroke-dasharray="none" opacity="1.0" fill="none"/><g id="ProcessOnG1013" transform="matrix(1.0,0.0,0.0,1.0,60.0,6.875)"><text id="ProcessOnText1014" fill="#000000" font-size="13" x="152.5" y="13.325" font-family="Tahoma" font-weight="normal" font-style="normal" text-decoration="none" family="Tahoma" text-anchor="middle" size="13">http://my-host.net</text></g></g><g id="ProcessOnG1015" transform="matrix(1.0,0.0,0.0,1.0,321.5,230.0)" opacity="1.0"><path id="ProcessOnPath1016" d="M0.0 0.0L93.0 0.0L93.0 90.5L0.0 90.5Z" stroke="#8a8a8a" stroke-width="2.0" stroke-dasharray="none" opacity="1.0" fill="#ffffff"/><path id="ProcessOnPath1017" d="M61.53846153846153 21.3125C76.53846153846153 21.3125 76.53846153846153 43.3125 61.53846153846153 43.3125C46.53846153846153 43.3125 46.53846153846153 21.3125 61.53846153846153 21.3125Z" stroke="#505050" stroke-width="1.0" stroke-dasharray="none" opacity="1.0" fill="#505050"/><path id="ProcessOnPath1018" d="M30.0 60.5L31.0 40.0L46.5 45.25L58.125 36.2L63.0 60.5Z" stroke="none" stroke-width="0.0" stroke-dasharray="none" opacity="1.0" fill="#505050"/><path id="ProcessOnPath1019" d="M0.0 0.0L93.0 0.0L93.0 90.5L0.0 90.5Z" stroke="none" stroke-width="0.0" stroke-dasharray="none" opacity="1.0" fill="none"/></g><g id="ProcessOnG1020" transform="matrix(1.0,0.0,0.0,1.0,434.5,230.0)" opacity="1.0"><path id="ProcessOnPath1021" d="M0.0 0.0L93.0 0.0L93.0 90.5L0.0 90.5Z" stroke="#8a8a8a" stroke-width="2.0" stroke-dasharray="none" opacity="1.0" fill="#ffffff"/><path id="ProcessOnPath1022" d="M61.53846153846153 21.3125C76.53846153846153 21.3125 76.53846153846153 43.3125 61.53846153846153 43.3125C46.53846153846153 43.3125 46.53846153846153 21.3125 61.53846153846153 21.3125Z" stroke="#505050" stroke-width="1.0" stroke-dasharray="none" opacity="1.0" fill="#505050"/><path id="ProcessOnPath1023" d="M30.0 60.5L31.0 40.0L46.5 45.25L58.125 36.2L63.0 60.5Z" stroke="none" stroke-width="0.0" stroke-dasharray="none" opacity="1.0" fill="#505050"/><path id="ProcessOnPath1024" d="M0.0 0.0L93.0 0.0L93.0 90.5L0.0 90.5Z" stroke="none" stroke-width="0.0" stroke-dasharray="none" opacity="1.0" fill="none"/></g><g id="ProcessOnG1025" transform="matrix(1.0,0.0,0.0,1.0,547.5,230.0)" opacity="1.0"><path id="ProcessOnPath1026" d="M0.0 0.0L93.0 0.0L93.0 90.5L0.0 90.5Z" stroke="#8a8a8a" stroke-width="2.0" stroke-dasharray="none" opacity="1.0" fill="#ffffff"/><path id="ProcessOnPath1027" d="M61.53846153846153 21.3125C76.53846153846153 21.3125 76.53846153846153 43.3125 61.53846153846153 43.3125C46.53846153846153 43.3125 46.53846153846153 21.3125 61.53846153846153 21.3125Z" stroke="#505050" stroke-width="1.0" stroke-dasharray="none" opacity="1.0" fill="#505050"/><path id="ProcessOnPath1028" d="M30.0 60.5L31.0 40.0L46.5 45.25L58.125 36.2L63.0 60.5Z" stroke="none" stroke-width="0.0" stroke-dasharray="none" opacity="1.0" fill="#505050"/><path id="ProcessOnPath1029" d="M0.0 0.0L93.0 0.0L93.0 90.5L0.0 90.5Z" stroke="none" stroke-width="0.0" stroke-dasharray="none" opacity="1.0" fill="none"/></g><g id="ProcessOnG1030" transform="matrix(1.0,0.0,0.0,1.0,316.0,418.5)" opacity="1.0"><path id="ProcessOnPath1031" d="M10.799999999999999 49.0C-9.0 35.0 3.6 24.5 8.1 21.0C6.300000000000001 3.5 28.8 0.0 37.8 7.0C45.0 -3.5 67.5 0.0 67.5 10.5C85.5 7.0 92.7 21.0 85.5 38.5C91.8 52.5 85.5 70.0 64.8 63.0C60.300000000000004 72.10000000000001 42.3 72.10000000000001 37.8 63.0C28.8 70.0 10.799999999999999 66.5 10.799999999999999 49.0Z" stroke="#323232" stroke-width="2.0" stroke-dasharray="none" opacity="1.0" fill="#ffffff"/><g id="ProcessOnG1032" transform="matrix(1.0,0.0,0.0,1.0,10.0,26.875)"><text id="ProcessOnText1033" fill="#000000" font-size="13" x="34.0" y="13.325" font-family="Tahoma" font-weight="normal" font-style="normal" text-decoration="none" family="Tahoma" text-anchor="middle" size="13">free-host-1</text></g></g><g id="ProcessOnG1034" transform="matrix(1.0,0.0,0.0,1.0,292.5,355.5)" opacity="1.0"><path id="ProcessOnPath1035" d="M0.0 0.0L377.0 0.0L377.0 23.0L0.0 23.0Z" stroke="#323232" stroke-width="2.0" stroke-dasharray="none" opacity="1.0" fill="#cfcfcf"/><g id="ProcessOnG1036" transform="matrix(1.0,0.0,0.0,1.0,10.0,3.375)"><text id="ProcessOnText1037" fill="#000000" font-size="13" x="177.5" y="13.325" font-family="微软雅黑" font-weight="normal" font-style="normal" text-decoration="none" family="微软雅黑" text-anchor="middle" size="13">JavaScript HTTP Balance</text></g></g><g id="ProcessOnG1038" transform="matrix(1.0,0.0,0.0,1.0,447.0,418.5)" opacity="1.0"><path id="ProcessOnPath1039" d="M10.799999999999999 49.0C-9.0 35.0 3.6 24.5 8.1 21.0C6.300000000000001 3.5 28.8 0.0 37.8 7.0C45.0 -3.5 67.5 0.0 67.5 10.5C85.5 7.0 92.7 21.0 85.5 38.5C91.8 52.5 85.5 70.0 64.8 63.0C60.300000000000004 72.10000000000001 42.3 72.10000000000001 37.8 63.0C28.8 70.0 10.799999999999999 66.5 10.799999999999999 49.0Z" stroke="#323232" stroke-width="2.0" stroke-dasharray="none" opacity="1.0" fill="#ffffff"/><g id="ProcessOnG1040" transform="matrix(1.0,0.0,0.0,1.0,10.0,26.875)"><text id="ProcessOnText1041" fill="#000000" font-size="13" x="34.0" y="13.325" font-family="Tahoma" font-weight="normal" font-style="normal" text-decoration="none" family="Tahoma" text-anchor="middle" size="13">free-host-2</text></g></g><g id="ProcessOnG1042" transform="matrix(1.0,0.0,0.0,1.0,305.0,387.5)" opacity="1.0"><path id="ProcessOnPath1043" d="M0.0 0.0L64.0 0.0L64.0 28.0L0.0 28.0Z" stroke="none" stroke-width="0.0" stroke-dasharray="none" opacity="1.0" fill="none"/><g id="ProcessOnG1044" transform="matrix(1.0,0.0,0.0,1.0,0.0,5.875)"><text id="ProcessOnText1045" fill="#00cc00" font-size="13" x="31.0" y="13.325" font-family="Tahoma" font-weight="normal" font-style="normal" text-decoration="none" family="Tahoma" text-anchor="middle" size="13">20ms</text></g></g><g id="ProcessOnG1046"><path id="ProcessOnPath1047" d="M501.0 419.20000000000005L501.0 398.85L501.0 398.85L501.0 378.5" stroke="#323232" stroke-width="2.0" stroke-dasharray="2.0 3.0" fill="none"/></g><g id="ProcessOnG1048"><path id="ProcessOnPath1049" d="M370.0 403.9639320225003L370.0 398.85L370.0 398.85L370.0 378.5" stroke="#323232" stroke-width="2.0" stroke-dasharray="none" fill="none" marker-start="url(#ProcessOnMarker1050)"/></g><g id="ProcessOnG1052" transform="matrix(1.0,0.0,0.0,1.0,434.5,387.5)" opacity="1.0"><path id="ProcessOnPath1053" d="M0.0 0.0L64.0 0.0L64.0 28.0L0.0 28.0Z" stroke="none" stroke-width="0.0" stroke-dasharray="none" opacity="1.0" fill="none"/><g id="ProcessOnG1054" transform="matrix(1.0,0.0,0.0,1.0,0.0,5.875)"><text id="ProcessOnText1055" fill="#999900" font-size="13" x="31.0" y="13.325" font-family="Tahoma" font-weight="normal" font-style="normal" text-decoration="none" family="Tahoma" text-anchor="middle" size="13">100ms</text></g></g><g id="ProcessOnG1056" transform="matrix(1.0,0.0,0.0,1.0,573.0,418.5)" opacity="1.0"><path id="ProcessOnPath1057" d="M10.799999999999999 49.0C-9.0 35.0 3.6 24.5 8.1 21.0C6.300000000000001 3.5 28.8 0.0 37.8 7.0C45.0 -3.5 67.5 0.0 67.5 10.5C85.5 7.0 92.7 21.0 85.5 38.5C91.8 52.5 85.5 70.0 64.8 63.0C60.300000000000004 72.10000000000001 42.3 72.10000000000001 37.8 63.0C28.8 70.0 10.799999999999999 66.5 10.799999999999999 49.0Z" stroke="#323232" stroke-width="2.0" stroke-dasharray="none" opacity="1.0" fill="#ffffff"/><g id="ProcessOnG1058" transform="matrix(1.0,0.0,0.0,1.0,10.0,26.875)"><text id="ProcessOnText1059" fill="#000000" font-size="13" x="34.0" y="13.325" font-family="Tahoma" font-weight="normal" font-style="normal" text-decoration="none" family="Tahoma" text-anchor="middle" size="13">free-host-3</text></g></g><g id="ProcessOnG1060"><path id="ProcessOnPath1061" d="M627.0 419.20000000000005L627.0 398.85L627.0 398.85L627.0 378.5" stroke="#323232" stroke-width="2.0" stroke-dasharray="2.0 3.0" fill="none"/></g><g id="ProcessOnG1062" transform="matrix(1.0,0.0,0.0,1.0,573.0,387.5)" opacity="1.0"><path id="ProcessOnPath1063" d="M0.0 0.0L53.0 0.0L53.0 28.0L0.0 28.0Z" stroke="none" stroke-width="0.0" stroke-dasharray="none" opacity="1.0" fill="none"/><g id="ProcessOnG1064" transform="matrix(1.0,0.0,0.0,1.0,0.0,5.875)"><text id="ProcessOnText1065" fill="#ff3333" font-size="13" x="25.5" y="13.325" font-family="Tahoma" font-weight="normal" font-style="normal" text-decoration="none" family="Tahoma" text-anchor="middle" size="13">404</text></g></g></g></g></svg>