<svg xmlns="http://www.w3.org/2000/svg" xmlns:xlink="http://www.w3.org/1999/xlink" id="processonSvg1000" viewBox="384.59375 269.5 656.8125 279.0" width="656.8125" height="279.0"><defs id="ProcessOnDefs1001"><marker id="ProcessOnMarker1039" markerUnits="userSpaceOnUse" orient="auto" markerWidth="16.23606797749979" markerHeight="10.550836550532098" viewBox="-1.0 -1.3763819204711736 16.23606797749979 10.550836550532098" refX="15.23606797749979" refY="3.8990363547948754"><path id="ProcessOnPath1040" d="M12.0 3.8990363547948754L0.0 7.798072709589751V0.0Z" stroke="#323232" stroke-width="2.0" fill="#323232" transform="matrix(-1.0,1.2246467991473532E-16,-1.2246467991473532E-16,-1.0,14.23606797749979,7.798072709589751)"/></marker><marker id="ProcessOnMarker1041" markerUnits="userSpaceOnUse" orient="auto" markerWidth="16.23606797749979" markerHeight="10.550836550532098" viewBox="-1.0 -1.3763819204711736 16.23606797749979 10.550836550532098" refX="-1.0" refY="3.8990363547948754"><path id="ProcessOnPath1042" d="M12.0 3.8990363547948754L0.0 7.798072709589751V0.0Z" stroke="#323232" stroke-width="2.0" fill="#323232" transform="matrix(1.0,0.0,0.0,1.0,0.0,0.0)"/></marker><marker id="ProcessOnMarker1045" markerUnits="userSpaceOnUse" orient="auto" markerWidth="16.23606797749979" markerHeight="10.550836550532098" viewBox="-1.0 -1.3763819204711736 16.23606797749979 10.550836550532098" refX="15.23606797749979" refY="3.8990363547948754"><path id="ProcessOnPath1046" d="M12.0 3.8990363547948754L0.0 7.798072709589751V0.0Z" stroke="#323232" stroke-width="2.0" fill="#323232" transform="matrix(-1.0,1.2246467991473532E-16,-1.2246467991473532E-16,-1.0,14.23606797749979,7.798072709589751)"/></marker><marker id="ProcessOnMarker1047" markerUnits="userSpaceOnUse" orient="auto" markerWidth="16.23606797749979" markerHeight="10.550836550532098" viewBox="-1.0 -1.3763819204711736 16.23606797749979 10.550836550532098" refX="-1.0" refY="3.8990363547948754"><path id="ProcessOnPath1048" d="M12.0 3.8990363547948754L0.0 7.798072709589751V0.0Z" stroke="#323232" stroke-width="2.0" fill="#323232" transform="matrix(1.0,0.0,0.0,1.0,0.0,0.0)"/></marker><marker id="ProcessOnMarker1051" markerUnits="userSpaceOnUse" orient="auto" markerWidth="16.23606797749979" markerHeight="10.550836550532098" viewBox="-1.0 -1.3763819204711736 16.23606797749979 10.550836550532098" refX="15.23606797749979" refY="3.8990363547948754"><path id="ProcessOnPath1052" d="M12.0 3.8990363547948754L0.0 7.798072709589751V0.0Z" stroke="#323232" stroke-width="2.0" fill="#323232" transform="matrix(-1.0,1.2246467991473532E-16,-1.2246467991473532E-16,-1.0,14.23606797749979,7.798072709589751)"/></marker><marker id="ProcessOnMarker1053" markerUnits="userSpaceOnUse" orient="auto" markerWidth="16.23606797749979" markerHeight="10.550836550532098" viewBox="-1.0 -1.3763819204711736 16.23606797749979 10.550836550532098" refX="-1.0" refY="3.8990363547948754"><path id="ProcessOnPath1054" d="M12.0 3.8990363547948754L0.0 7.798072709589751V0.0Z" stroke="#323232" stroke-width="2.0" fill="#323232" transform="matrix(1.0,0.0,0.0,1.0,0.0,0.0)"/></marker><marker id="ProcessOnMarker1067" markerUnits="userSpaceOnUse" orient="auto" markerWidth="16.23606797749979" markerHeight="10.550836550532098" viewBox="-1.0 -1.3763819204711736 16.23606797749979 10.550836550532098" refX="-1.0" refY="3.8990363547948754"><path id="ProcessOnPath1068" d="M12.0 3.8990363547948754L0.0 7.798072709589751V0.0Z" stroke="#323232" stroke-width="2.0" fill="#323232" transform="matrix(1.0,0.0,0.0,1.0,0.0,0.0)"/></marker><marker id="ProcessOnMarker1089" markerUnits="userSpaceOnUse" orient="auto" markerWidth="16.23606797749979" markerHeight="10.550836550532098" viewBox="-1.0 -1.3763819204711736 16.23606797749979 10.550836550532098" refX="-1.0" refY="3.8990363547948754"><path id="ProcessOnPath1090" d="M12.0 3.8990363547948754L0.0 7.798072709589751V0.0Z" stroke="#323232" stroke-width="2.0" fill="#323232" transform="matrix(1.0,0.0,0.0,1.0,0.0,0.0)"/></marker></defs><g id="ProcessOnG1002"><path id="ProcessOnPath1003" d="M384.59375 269.5H1041.40625V548.5H384.59375V269.5Z" fill="none"/><g id="ProcessOnG1004"><g id="ProcessOnG1005" transform="matrix(1.0,0.0,0.0,1.0,404.59375,329.5)" opacity="1.0"><path id="ProcessOnPath1006" d="M0.0 4.0Q0.0 0.0 4.0 0.0L169.75 0.0Q173.75 0.0 173.75 4.0L173.75 148.0Q173.75 152.0 169.75 152.0L4.0 152.0Q0.0 152.0 0.0 148.0Z" stroke="#dadada" stroke-width="2.0" stroke-dasharray="none" opacity="1.0" fill="#ffffff"/><path id="ProcessOnPath1007" d="M0.0 30.0L0.0 4.0Q0.0 0.0 4.0 0.0L169.75 0.0Q173.75 0.0 173.75 4.0L173.75 30.0Z" stroke="#dadada" stroke-width="2.0" stroke-dasharray="none" opacity="1.0" fill="#dadada"/><path id="ProcessOnPath1008" d="M10.0 15.0C10.0 10.0 18.0 10.0 18.0 15.0C18.0 20.0 10.0 20.0 10.0 15.0Z" stroke="none" stroke-width="0.0" stroke-dasharray="none" opacity="1.0" fill="#ffffff"/><path id="ProcessOnPath1009" d="M23.0 15.0C23.0 10.0 31.0 10.0 31.0 15.0C31.0 20.0 23.0 20.0 23.0 15.0Z" stroke="none" stroke-width="0.0" stroke-dasharray="none" opacity="1.0" fill="#ffffff"/><path id="ProcessOnPath1010" d="M36.0 15.0C36.0 10.0 44.0 10.0 44.0 15.0C44.0 20.0 36.0 20.0 36.0 15.0Z" stroke="none" stroke-width="0.0" stroke-dasharray="none" opacity="1.0" fill="#ffffff"/><path id="ProcessOnPath1011" d="M55.0 9.0Q55.0 5.0 59.0 5.0L164.75 5.0Q168.75 5.0 168.75 9.0L168.75 21.0Q168.75 25.0 164.75 25.0L59.0 25.0Q55.0 25.0 55.0 21.0Z" stroke="none" stroke-width="0.0" stroke-dasharray="none" opacity="1.0" fill="#ffffff"/><path id="ProcessOnPath1012" d="M0.0 0.0L173.75 0.0L173.75 152.0L0.0 152.0Z" stroke="none" stroke-width="0.0" stroke-dasharray="none" opacity="1.0" fill="none"/><g id="ProcessOnG1013" transform="matrix(1.0,0.0,0.0,1.0,60.0,6.875)"><text id="ProcessOnText1014" fill="#000000" font-size="13" x="0.0" y="13.325" font-family="Tahoma" font-weight="normal" font-style="normal" text-decoration="none" family="Tahoma" text-anchor="start" size="13">my-site</text></g></g><g id="ProcessOnG1015" transform="matrix(1.0,0.0,0.0,1.0,444.96875,374.0)" opacity="1.0"><path id="ProcessOnPath1016" d="M0.0 0.0L93.0 0.0L93.0 90.5L0.0 90.5Z" stroke="#8a8a8a" stroke-width="2.0" stroke-dasharray="none" opacity="1.0" fill="#ffffff"/><path id="ProcessOnPath1017" d="M61.53846153846153 21.3125C76.53846153846153 21.3125 76.53846153846153 43.3125 61.53846153846153 43.3125C46.53846153846153 43.3125 46.53846153846153 21.3125 61.53846153846153 21.3125Z" stroke="#505050" stroke-width="1.0" stroke-dasharray="none" opacity="1.0" fill="#505050"/><path id="ProcessOnPath1018" d="M30.0 60.5L31.0 40.0L46.5 45.25L58.125 36.2L63.0 60.5Z" stroke="none" stroke-width="0.0" stroke-dasharray="none" opacity="1.0" fill="#505050"/><path id="ProcessOnPath1019" d="M0.0 0.0L93.0 0.0L93.0 90.5L0.0 90.5Z" stroke="none" stroke-width="0.0" stroke-dasharray="none" opacity="1.0" fill="none"/></g><g id="ProcessOnG1020" transform="matrix(1.0,0.0,0.0,1.0,855.59375,289.5)" opacity="1.0"><path id="ProcessOnPath1021" d="M10.799999999999999 49.0C-9.0 35.0 3.6 24.5 8.1 21.0C6.300000000000001 3.5 28.8 0.0 37.8 7.0C45.0 -3.5 67.5 0.0 67.5 10.5C85.5 7.0 92.7 21.0 85.5 38.5C91.8 52.5 85.5 70.0 64.8 63.0C60.300000000000004 72.10000000000001 42.3 72.10000000000001 37.8 63.0C28.8 70.0 10.799999999999999 66.5 10.799999999999999 49.0Z" stroke="#323232" stroke-width="2.0" stroke-dasharray="none" opacity="1.0" fill="#ffffff"/><g id="ProcessOnG1022" transform="matrix(1.0,0.0,0.0,1.0,10.0,26.875)"><text id="ProcessOnText1023" fill="#000000" font-size="13" x="34.0" y="13.325" font-family="Tahoma" font-weight="normal" font-style="normal" text-decoration="none" family="Tahoma" text-anchor="middle" size="13">free-host-1</text></g></g><g id="ProcessOnG1024" transform="matrix(1.0,0.0,0.0,1.0,855.59375,376.25)" opacity="1.0"><path id="ProcessOnPath1025" d="M10.799999999999999 49.0C-9.0 35.0 3.6 24.5 8.1 21.0C6.300000000000001 3.5 28.8 0.0 37.8 7.0C45.0 -3.5 67.5 0.0 67.5 10.5C85.5 7.0 92.7 21.0 85.5 38.5C91.8 52.5 85.5 70.0 64.8 63.0C60.300000000000004 72.10000000000001 42.3 72.10000000000001 37.8 63.0C28.8 70.0 10.799999999999999 66.5 10.799999999999999 49.0Z" stroke="#323232" stroke-width="2.0" stroke-dasharray="none" opacity="1.0" fill="#ffffff"/><g id="ProcessOnG1026" transform="matrix(1.0,0.0,0.0,1.0,10.0,26.875)"><text id="ProcessOnText1027" fill="#000000" font-size="13" x="34.0" y="13.325" font-family="Tahoma" font-weight="normal" font-style="normal" text-decoration="none" family="Tahoma" text-anchor="middle" size="13">free-host-2</text></g></g><g id="ProcessOnG1028" transform="matrix(1.0,0.0,0.0,1.0,855.59375,458.5)" opacity="1.0"><path id="ProcessOnPath1029" d="M10.799999999999999 49.0C-9.0 35.0 3.6 24.5 8.1 21.0C6.300000000000001 3.5 28.8 0.0 37.8 7.0C45.0 -3.5 67.5 0.0 67.5 10.5C85.5 7.0 92.7 21.0 85.5 38.5C91.8 52.5 85.5 70.0 64.8 63.0C60.300000000000004 72.10000000000001 42.3 72.10000000000001 37.8 63.0C28.8 70.0 10.799999999999999 66.5 10.799999999999999 49.0Z" stroke="#323232" stroke-width="2.0" stroke-dasharray="none" opacity="1.0" fill="#ffffff"/><g id="ProcessOnG1030" transform="matrix(1.0,0.0,0.0,1.0,10.0,26.875)"><text id="ProcessOnText1031" fill="#000000" font-size="13" x="34.0" y="13.325" font-family="Tahoma" font-weight="normal" font-style="normal" text-decoration="none" family="Tahoma" text-anchor="middle" size="13">free-host-N</text></g></g><g id="ProcessOnG1032" transform="matrix(1.0,0.0,0.0,1.0,761.3125,481.5)" opacity="1.0"><path id="ProcessOnPath1033" d="M0.0 0.0L72.25 0.0L72.25 33.0L0.0 33.0Z" stroke="none" stroke-width="0.0" stroke-dasharray="none" opacity="1.0" fill="none"/><g id="ProcessOnG1034" transform="matrix(1.0,0.0,0.0,1.0,0.0,0.25)"><text id="ProcessOnText1035" fill="#994c00" font-size="13" x="35.125" y="13.325" font-family="Tahoma" font-weight="normal" font-style="normal" text-decoration="none" family="Tahoma" text-anchor="middle" size="13">Rang:</text><text id="ProcessOnText1036" fill="#994c00" font-size="13" x="35.125" y="29.575" font-family="Tahoma" font-weight="normal" font-style="normal" text-decoration="none" family="Tahoma" text-anchor="middle" size="13">200 - 300KB</text></g></g><g id="ProcessOnG1037"><path id="ProcessOnPath1038" d="M841.3303363184302 329.8565658367467L755.3571636815698 362.1434341632533" stroke="#323232" stroke-width="2.0" stroke-dasharray="none" fill="none" marker-start="url(#ProcessOnMarker1039)" marker-end="url(#ProcessOnMarker1041)"/></g><g id="ProcessOnG1043"><path id="ProcessOnPath1044" d="M840.3576820225002 411.25L798.78125 411.25L798.78125 411.25L757.2048179774998 411.25" stroke="#323232" stroke-width="2.0" stroke-dasharray="none" fill="none" marker-start="url(#ProcessOnMarker1045)" marker-end="url(#ProcessOnMarker1047)"/></g><g id="ProcessOnG1049"><path id="ProcessOnPath1050" d="M841.3716328539091 488.03473227573795L755.3158671460909 454.96526772426205" stroke="#323232" stroke-width="2.0" stroke-dasharray="none" fill="none" marker-start="url(#ProcessOnMarker1051)" marker-end="url(#ProcessOnMarker1053)"/></g><g id="ProcessOnG1055" transform="matrix(1.0,0.0,0.0,1.0,761.875,292.5)" opacity="1.0"><path id="ProcessOnPath1056" d="M0.0 0.0L75.8125 0.0L75.8125 31.0L0.0 31.0Z" stroke="none" stroke-width="0.0" stroke-dasharray="none" opacity="1.0" fill="none"/><g id="ProcessOnG1057" transform="matrix(1.0,0.0,0.0,1.0,0.0,-0.75)"><text id="ProcessOnText1058" fill="#994c00" font-size="13" x="36.90625" y="13.325" font-family="Tahoma" font-weight="normal" font-style="normal" text-decoration="none" family="Tahoma" text-anchor="middle" size="13">Rang:</text><text id="ProcessOnText1059" fill="#994c00" font-size="13" x="36.90625" y="29.575" font-family="Tahoma" font-weight="normal" font-style="normal" text-decoration="none" family="Tahoma" text-anchor="middle" size="13">  0 - 100KB</text></g></g><g id="ProcessOnG1060" transform="matrix(1.0,0.0,0.0,1.0,757.1875,374.25)" opacity="1.0"><path id="ProcessOnPath1061" d="M0.0 0.0L80.5 0.0L80.5 28.5L0.0 28.5Z" stroke="none" stroke-width="0.0" stroke-dasharray="none" opacity="1.0" fill="none"/><g id="ProcessOnG1062" transform="matrix(1.0,0.0,0.0,1.0,0.0,-2.0)"><text id="ProcessOnText1063" fill="#994c00" font-size="13" x="39.25" y="13.325" font-family="Tahoma" font-weight="normal" font-style="normal" text-decoration="none" family="Tahoma" text-anchor="middle" size="13">Rang:</text><text id="ProcessOnText1064" fill="#994c00" font-size="13" x="39.25" y="29.575" font-family="Tahoma" font-weight="normal" font-style="normal" text-decoration="none" family="Tahoma" text-anchor="middle" size="13">100 - 200KB</text></g></g><g id="ProcessOnG1065"><path id="ProcessOnPath1066" d="M652.09375 447.5L615.21875 447.5L615.21875 447.5L593.5798179774998 447.5" stroke="#323232" stroke-width="2.0" stroke-dasharray="none" fill="none" marker-end="url(#ProcessOnMarker1067)"/></g><g id="ProcessOnG1069" transform="matrix(1.0,0.0,0.0,1.0,644.53125,489.5)" opacity="1.0"><path id="ProcessOnPath1070" d="M0.0 0.0L106.0 0.0L106.0 34.0L0.0 34.0Z" stroke="none" stroke-width="0.0" stroke-dasharray="none" opacity="1.0" fill="none"/><g id="ProcessOnG1071" transform="matrix(1.0,0.0,0.0,1.0,0.0,8.875)"><text id="ProcessOnText1072" fill="#000000" font-size="13" x="52.0" y="13.325" font-family="Tahoma" font-weight="normal" font-style="normal" text-decoration="none" family="Tahoma" text-anchor="middle" size="13">Service Worker</text></g></g><g id="ProcessOnG1073" transform="matrix(1.0,0.0,0.0,1.0,587.09375,417.5)" opacity="1.0"><path id="ProcessOnPath1074" d="M0.0 0.0L64.0 0.0L64.0 28.0L0.0 28.0Z" stroke="none" stroke-width="0.0" stroke-dasharray="none" opacity="1.0" fill="none"/><g id="ProcessOnG1075" transform="matrix(1.0,0.0,0.0,1.0,0.0,5.875)"><text id="ProcessOnText1076" fill="#66cc00" font-size="13" x="31.0" y="13.325" font-family="Tahoma" font-weight="normal" font-style="normal" text-decoration="none" family="Tahoma" text-anchor="middle" size="13">300KB/s</text></g></g><g id="ProcessOnG1077" transform="matrix(1.0,0.0,0.0,1.0,589.09375,338.0)" opacity="1.0"><path id="ProcessOnPath1078" d="M0.0 0.0L53.0 0.0L53.0 28.0L0.0 28.0Z" stroke="none" stroke-width="0.0" stroke-dasharray="none" opacity="1.0" fill="none"/><g id="ProcessOnG1079" transform="matrix(1.0,0.0,0.0,1.0,0.0,5.875)"><text id="ProcessOnText1080" fill="#000000" font-size="13" x="25.5" y="13.325" font-family="Tahoma" font-weight="normal" font-style="normal" text-decoration="none" family="Tahoma" text-anchor="middle" size="13">GET</text></g></g><g id="ProcessOnG1081" transform="matrix(1.0,0.0,0.0,1.0,653.09375,335.25)" opacity="1.0"><path id="ProcessOnPath1082" d="M0.0 0.0L88.875 0.0L88.875 152.0L0.0 152.0Z" stroke="#323232" stroke-width="2.0" stroke-dasharray="none" opacity="1.0" fill="#e5e5e5"/></g><g id="ProcessOnG1083" transform="matrix(1.0,0.0,0.0,1.0,662.03125,397.25)" opacity="1.0"><path id="ProcessOnPath1084" d="M0.0 0.0L71.0 0.0L71.0 28.0L0.0 28.0Z" stroke="#000000" stroke-width="1.0" stroke-dasharray="none" opacity="1.0" fill="#ffffff"/><g id="ProcessOnG1085" transform="matrix(1.0,0.0,0.0,1.0,10.0,5.875)"><text id="ProcessOnText1086" fill="#000000" font-size="13" x="24.5" y="13.325" font-family="Tahoma" font-weight="bold" font-style="normal" text-decoration="none" family="Tahoma" text-anchor="middle" size="13">boost</text></g></g><g id="ProcessOnG1087"><path id="ProcessOnPath1088" d="M578.34375 366.5L615.96875 366.5L615.96875 366.5L638.3576820225002 366.5" stroke="#323232" stroke-width="2.0" stroke-dasharray="none" fill="none" marker-end="url(#ProcessOnMarker1089)"/></g><g id="ProcessOnG1091" transform="matrix(1.0,0.0,0.0,1.0,945.59375,304.25)" opacity="1.0"><path id="ProcessOnPath1092" d="M0.0 0.0L75.8125 0.0L75.8125 31.0L0.0 31.0Z" stroke="none" stroke-width="0.0" stroke-dasharray="none" opacity="1.0" fill="none"/><g id="ProcessOnG1093" transform="matrix(1.0,0.0,0.0,1.0,0.0,7.375)"><text id="ProcessOnText1094" fill="#999900" font-size="13" x="36.90625" y="13.325" font-family="Tahoma" font-weight="normal" font-style="normal" text-decoration="none" family="Tahoma" text-anchor="middle" size="13">100KB/s</text></g></g><g id="ProcessOnG1095" transform="matrix(1.0,0.0,0.0,1.0,945.59375,392.0)" opacity="1.0"><path id="ProcessOnPath1096" d="M0.0 0.0L75.8125 0.0L75.8125 31.0L0.0 31.0Z" stroke="none" stroke-width="0.0" stroke-dasharray="none" opacity="1.0" fill="none"/><g id="ProcessOnG1097" transform="matrix(1.0,0.0,0.0,1.0,0.0,7.375)"><text id="ProcessOnText1098" fill="#999900" font-size="13" x="36.90625" y="13.325" font-family="Tahoma" font-weight="normal" font-style="normal" text-decoration="none" family="Tahoma" text-anchor="middle" size="13">100KB/s</text></g></g><g id="ProcessOnG1099" transform="matrix(1.0,0.0,0.0,1.0,945.59375,478.0)" opacity="1.0"><path id="ProcessOnPath1100" d="M0.0 0.0L75.8125 0.0L75.8125 31.0L0.0 31.0Z" stroke="none" stroke-width="0.0" stroke-dasharray="none" opacity="1.0" fill="none"/><g id="ProcessOnG1101" transform="matrix(1.0,0.0,0.0,1.0,0.0,7.375)"><text id="ProcessOnText1102" fill="#999900" font-size="13" x="36.90625" y="13.325" font-family="Tahoma" font-weight="normal" font-style="normal" text-decoration="none" family="Tahoma" text-anchor="middle" size="13">100KB/s</text></g></g></g></g></svg>