<svg xmlns="http://www.w3.org/2000/svg" xmlns:xlink="http://www.w3.org/1999/xlink" id="processonSvg1000" viewBox="358.71875 216.84146940825985 492.5625 162.3170611834803" width="492.5625" height="162.3170611834803"><defs id="ProcessOnDefs1001"><marker id="ProcessOnMarker1027" markerUnits="userSpaceOnUse" orient="auto" markerWidth="16.23606797749979" markerHeight="10.550836550532098" viewBox="-1.0 -1.3763819204711736 16.23606797749979 10.550836550532098" refX="15.23606797749979" refY="3.8990363547948754"><path id="ProcessOnPath1028" d="M12.0 3.8990363547948754L0.0 7.798072709589751V0.0Z" stroke="#323232" stroke-width="2.0" fill="#323232" transform="matrix(-1.0,1.2246467991473532E-16,-1.2246467991473532E-16,-1.0,14.23606797749979,7.798072709589751)"/></marker><marker id="ProcessOnMarker1029" markerUnits="userSpaceOnUse" orient="auto" markerWidth="16.23606797749979" markerHeight="10.550836550532098" viewBox="-1.0 -1.3763819204711736 16.23606797749979 10.550836550532098" refX="-1.0" refY="3.8990363547948754"><path id="ProcessOnPath1030" d="M12.0 3.8990363547948754L0.0 7.798072709589751V0.0Z" stroke="#323232" stroke-width="2.0" fill="#323232" transform="matrix(1.0,0.0,0.0,1.0,0.0,0.0)"/></marker></defs><g id="ProcessOnG1002"><path id="ProcessOnPath1003" d="M358.71875 216.84146940825985H851.28125V379.15853059174015H358.71875V216.84146940825985Z" fill="none"/><g id="ProcessOnG1004"><g id="ProcessOnG1005" transform="matrix(1.0,0.0,0.0,1.0,378.71875,236.84146940825985)" opacity="1.0"><path id="ProcessOnPath1006" d="M0.0 4.0Q0.0 0.0 4.0 0.0L248.4375 0.0Q252.4375 0.0 252.4375 4.0L252.4375 118.31706118348029Q252.4375 122.31706118348029 248.4375 122.31706118348029L4.0 122.31706118348029Q0.0 122.31706118348029 0.0 118.31706118348029Z" stroke="#dadada" stroke-width="2.0" stroke-dasharray="none" opacity="1.0" fill="#ffffff"/><path id="ProcessOnPath1007" d="M0.0 30.0L0.0 4.0Q0.0 0.0 4.0 0.0L248.4375 0.0Q252.4375 0.0 252.4375 4.0L252.4375 30.0Z" stroke="#dadada" stroke-width="2.0" stroke-dasharray="none" opacity="1.0" fill="#dadada"/><path id="ProcessOnPath1008" d="M10.0 15.0C10.0 10.0 18.0 10.0 18.0 15.0C18.0 20.0 10.0 20.0 10.0 15.0Z" stroke="none" stroke-width="0.0" stroke-dasharray="none" opacity="1.0" fill="#ffffff"/><path id="ProcessOnPath1009" d="M23.0 15.0C23.0 10.0 31.0 10.0 31.0 15.0C31.0 20.0 23.0 20.0 23.0 15.0Z" stroke="none" stroke-width="0.0" stroke-dasharray="none" opacity="1.0" fill="#ffffff"/><path id="ProcessOnPath1010" d="M36.0 15.0C36.0 10.0 44.0 10.0 44.0 15.0C44.0 20.0 36.0 20.0 36.0 15.0Z" stroke="none" stroke-width="0.0" stroke-dasharray="none" opacity="1.0" fill="#ffffff"/><path id="ProcessOnPath1011" d="M55.0 9.0Q55.0 5.0 59.0 5.0L243.4375 5.0Q247.4375 5.0 247.4375 9.0L247.4375 21.0Q247.4375 25.0 243.4375 25.0L59.0 25.0Q55.0 25.0 55.0 21.0Z" stroke="none" stroke-width="0.0" stroke-dasharray="none" opacity="1.0" fill="#ffffff"/><path id="ProcessOnPath1012" d="M0.0 0.0L252.4375 0.0L252.4375 122.31706118348029L0.0 122.31706118348029Z" stroke="none" stroke-width="0.0" stroke-dasharray="none" opacity="1.0" fill="none"/><g id="ProcessOnG1013" transform="matrix(1.0,0.0,0.0,1.0,60.0,6.875)"><text id="ProcessOnText1014" fill="#000000" font-size="13" x="0.0" y="13.325" font-family="Tahoma" font-weight="normal" font-style="normal" text-decoration="none" family="Tahoma" text-anchor="start" size="13">https://my-site</text></g></g><g id="ProcessOnG1015" transform="matrix(1.0,0.0,0.0,1.0,398.28125,284.11419668098756)" opacity="1.0"><path id="ProcessOnPath1016" d="M0.0 0.0L207.3125 0.0L207.3125 53.34710743801543L0.0 53.34710743801543Z" stroke="#323232" stroke-width="2.0" stroke-dasharray="none" opacity="1.0" fill="#b3ff66"/><g id="ProcessOnG1017" transform="matrix(1.0,0.0,0.0,1.0,10.0,10.423553719007714)"><text id="ProcessOnText1018" fill="#000000" font-size="13" x="92.65625" y="13.325" font-family="Tahoma" font-weight="normal" font-style="normal" text-decoration="none" family="Tahoma" text-anchor="middle" size="13">Flash</text><text id="ProcessOnText1019" fill="#000000" font-size="13" x="92.65625" y="29.575" font-family="Tahoma" font-weight="normal" font-style="normal" text-decoration="none" family="Tahoma" text-anchor="middle" size="13">(https://github.io/xx/proxy.swf)</text></g></g><g id="ProcessOnG1020" transform="matrix(1.0,0.0,0.0,1.0,729.8751173929372,275.7877503999953)" opacity="1.0"><path id="ProcessOnPath1021" d="M12.168735912847533 49.0C-10.140613260706278 35.0 4.056245304282511 24.5 9.12655193463565 21.0C7.098429282494394 3.5 32.44996243426009 0.0 42.59057569496636 7.0C50.703066303531386 -3.5 76.05459945529708 0.0 76.05459945529708 10.5C96.33582597670963 7.0 104.44831658527465 21.0 96.33582597670963 38.5C103.43425525920404 52.5 96.33582597670963 70.0 73.0124154770852 63.0C67.94210884673207 72.10000000000001 47.6608823253195 72.10000000000001 42.59057569496636 63.0C32.44996243426009 70.0 12.168735912847533 66.5 12.168735912847533 49.0Z" stroke="#323232" stroke-width="2.0" stroke-dasharray="none" opacity="1.0" fill="#ffff00"/><g id="ProcessOnG1022" transform="matrix(1.0,0.0,0.0,1.0,10.0,18.75)"><text id="ProcessOnText1023" fill="#000000" font-size="13" x="39.703066303531386" y="13.325" font-family="Tahoma" font-weight="normal" font-style="normal" text-decoration="none" family="Tahoma" text-anchor="middle" size="13">http://a.com</text><text id="ProcessOnText1024" fill="#000000" font-size="13" x="39.703066303531386" y="29.575" font-family="Tahoma" font-weight="normal" font-style="normal" text-decoration="none" family="Tahoma" text-anchor="middle" size="13">(cross.xml)</text></g></g><g id="ProcessOnG1025"><path id="ProcessOnPath1026" d="M620.8298179774998 310.787750399995L714.6390494154374 310.787750399996" stroke="#323232" stroke-width="2.0" stroke-dasharray="none" fill="none" marker-start="url(#ProcessOnMarker1027)" marker-end="url(#ProcessOnMarker1029)"/></g><g id="ProcessOnG1031" transform="matrix(1.0,0.0,0.0,1.0,633.65625,288.15937106776664)" opacity="1.0"><path id="ProcessOnPath1032" d="M0.0 0.0L75.625 0.0L75.625 19.681257864466716L0.0 19.681257864466716Z" stroke="none" stroke-width="0.0" stroke-dasharray="none" opacity="1.0" fill="none"/><g id="ProcessOnG1033" transform="matrix(1.0,0.0,0.0,1.0,0.0,1.7156289322333578)"><text id="ProcessOnText1034" fill="#000000" font-size="13" x="36.8125" y="13.325" font-family="Tahoma" font-weight="bold" font-style="normal" text-decoration="none" family="Tahoma" text-anchor="middle" size="13">URLStream</text></g></g></g></g></svg>