<svg xmlns="http://www.w3.org/2000/svg" xmlns:xlink="http://www.w3.org/1999/xlink" id="processonSvg1000" viewBox="358.2684392288779 187.09090909090878 493.46312154224415 221.81818181818244" width="493.46312154224415" height="221.81818181818244"><defs id="ProcessOnDefs1001"><marker id="ProcessOnMarker1026" markerUnits="userSpaceOnUse" orient="auto" markerWidth="16.23606797749979" markerHeight="10.550836550532098" viewBox="-1.0 -1.3763819204711736 16.23606797749979 10.550836550532098" refX="15.23606797749979" refY="3.8990363547948754"><path id="ProcessOnPath1027" d="M12.0 3.8990363547948754L0.0 7.798072709589751V0.0Z" stroke="#323232" stroke-width="2.0" fill="#323232" transform="matrix(-1.0,1.2246467991473532E-16,-1.2246467991473532E-16,-1.0,14.23606797749979,7.798072709589751)"/></marker><marker id="ProcessOnMarker1028" markerUnits="userSpaceOnUse" orient="auto" markerWidth="16.23606797749979" markerHeight="10.550836550532098" viewBox="-1.0 -1.3763819204711736 16.23606797749979 10.550836550532098" refX="-1.0" refY="3.8990363547948754"><path id="ProcessOnPath1029" d="M12.0 3.8990363547948754L0.0 7.798072709589751V0.0Z" stroke="#323232" stroke-width="2.0" fill="#323232" transform="matrix(1.0,0.0,0.0,1.0,0.0,0.0)"/></marker><marker id="ProcessOnMarker1037" markerUnits="userSpaceOnUse" orient="auto" markerWidth="16.23606797749979" markerHeight="10.550836550532098" viewBox="-1.0 -1.3763819204711736 16.23606797749979 10.550836550532098" refX="15.23606797749979" refY="3.8990363547948754"><path id="ProcessOnPath1038" d="M12.0 3.8990363547948754L0.0 7.798072709589751V0.0Z" stroke="#323232" stroke-width="2.0" fill="#323232" transform="matrix(-1.0,1.2246467991473532E-16,-1.2246467991473532E-16,-1.0,14.23606797749979,7.798072709589751)"/></marker><marker id="ProcessOnMarker1053" markerUnits="userSpaceOnUse" orient="auto" markerWidth="16.23606797749979" markerHeight="10.550836550532098" viewBox="-1.0 -1.3763819204711736 16.23606797749979 10.550836550532098" refX="15.23606797749979" refY="3.8990363547948754"><path id="ProcessOnPath1054" d="M12.0 3.8990363547948754L0.0 7.798072709589751V0.0Z" stroke="#323232" stroke-width="2.0" fill="#323232" transform="matrix(-1.0,1.2246467991473532E-16,-1.2246467991473532E-16,-1.0,14.23606797749979,7.798072709589751)"/></marker><marker id="ProcessOnMarker1061" markerUnits="userSpaceOnUse" orient="auto" markerWidth="16.23606797749979" markerHeight="10.550836550532098" viewBox="-1.0 -1.3763819204711736 16.23606797749979 10.550836550532098" refX="15.23606797749979" refY="3.8990363547948754"><path id="ProcessOnPath1062" d="M12.0 3.8990363547948754L0.0 7.798072709589751V0.0Z" stroke="#323232" stroke-width="2.0" fill="#323232" transform="matrix(-1.0,1.2246467991473532E-16,-1.2246467991473532E-16,-1.0,14.23606797749979,7.798072709589751)"/></marker><marker id="ProcessOnMarker1065" markerUnits="userSpaceOnUse" orient="auto" markerWidth="16.23606797749979" markerHeight="10.550836550532098" viewBox="-1.0 -1.3763819204711736 16.23606797749979 10.550836550532098" refX="-1.0" refY="3.8990363547948754"><path id="ProcessOnPath1066" d="M12.0 3.8990363547948754L0.0 7.798072709589751V0.0Z" stroke="#323232" stroke-width="2.0" fill="#323232" transform="matrix(1.0,0.0,0.0,1.0,0.0,0.0)"/></marker></defs><g id="ProcessOnG1002"><path id="ProcessOnPath1003" d="M358.2684392288779 187.09090909090878H851.7315607711221V408.9090909090912H358.2684392288779V187.09090909090878Z" fill="none"/><g id="ProcessOnG1004"><g id="ProcessOnG1005" transform="matrix(1.0,0.0,0.0,1.0,378.2684392288779,207.09090909090878)" opacity="1.0"><path id="ProcessOnPath1006" d="M0.0 4.0Q0.0 0.0 4.0 0.0L291.6363636363636 0.0Q295.6363636363636 0.0 295.6363636363636 4.0L295.6363636363636 120.45454545454572Q295.6363636363636 124.45454545454572 291.6363636363636 124.45454545454572L4.0 124.45454545454572Q0.0 124.45454545454572 0.0 120.45454545454572Z" stroke="#dadada" stroke-width="2.0" stroke-dasharray="none" opacity="1.0" fill="#ffffff"/><path id="ProcessOnPath1007" d="M0.0 30.0L0.0 4.0Q0.0 0.0 4.0 0.0L291.6363636363636 0.0Q295.6363636363636 0.0 295.6363636363636 4.0L295.6363636363636 30.0Z" stroke="#dadada" stroke-width="2.0" stroke-dasharray="none" opacity="1.0" fill="#dadada"/><path id="ProcessOnPath1008" d="M10.0 15.0C10.0 10.0 18.0 10.0 18.0 15.0C18.0 20.0 10.0 20.0 10.0 15.0Z" stroke="none" stroke-width="0.0" stroke-dasharray="none" opacity="1.0" fill="#ffffff"/><path id="ProcessOnPath1009" d="M23.0 15.0C23.0 10.0 31.0 10.0 31.0 15.0C31.0 20.0 23.0 20.0 23.0 15.0Z" stroke="none" stroke-width="0.0" stroke-dasharray="none" opacity="1.0" fill="#ffffff"/><path id="ProcessOnPath1010" d="M36.0 15.0C36.0 10.0 44.0 10.0 44.0 15.0C44.0 20.0 36.0 20.0 36.0 15.0Z" stroke="none" stroke-width="0.0" stroke-dasharray="none" opacity="1.0" fill="#ffffff"/><path id="ProcessOnPath1011" d="M55.0 9.0Q55.0 5.0 59.0 5.0L286.6363636363636 5.0Q290.6363636363636 5.0 290.6363636363636 9.0L290.6363636363636 21.0Q290.6363636363636 25.0 286.6363636363636 25.0L59.0 25.0Q55.0 25.0 55.0 21.0Z" stroke="none" stroke-width="0.0" stroke-dasharray="none" opacity="1.0" fill="#ffffff"/><path id="ProcessOnPath1012" d="M0.0 0.0L295.6363636363636 0.0L295.6363636363636 124.45454545454572L0.0 124.45454545454572Z" stroke="none" stroke-width="0.0" stroke-dasharray="none" opacity="1.0" fill="none"/><g id="ProcessOnG1013" transform="matrix(1.0,0.0,0.0,1.0,60.0,6.875)"><text id="ProcessOnText1014" fill="#000000" font-size="13" x="0.0" y="13.325" font-family="Tahoma" font-weight="normal" font-style="normal" text-decoration="none" family="Tahoma" text-anchor="start" size="13">https://my-site</text></g></g><g id="ProcessOnG1015" transform="matrix(1.0,0.0,0.0,1.0,531.8934392288779,254.3636363636365)" opacity="1.0"><path id="ProcessOnPath1016" d="M0.0 0.0L114.875 0.0L114.875 53.181818181818244L0.0 53.181818181818244Z" stroke="#323232" stroke-width="2.0" stroke-dasharray="none" opacity="1.0" fill="#b3ff66"/><g id="ProcessOnG1017" transform="matrix(1.0,0.0,0.0,1.0,10.0,10.340909090909122)"><text id="ProcessOnText1018" fill="#000000" font-size="13" x="46.4375" y="13.325" font-family="Tahoma" font-weight="normal" font-style="normal" text-decoration="none" family="Tahoma" text-anchor="middle" size="13">&lt;iframe&gt;</text><text id="ProcessOnText1019" fill="#000000" font-size="13" x="46.4375" y="29.575" font-family="Tahoma" font-weight="normal" font-style="normal" text-decoration="none" family="Tahoma" text-anchor="middle" size="13">a.com</text></g></g><g id="ProcessOnG1020" transform="matrix(1.0,0.0,0.0,1.0,729.9873066218152,245.95454545454618)" opacity="1.0"><path id="ProcessOnPath1021" d="M12.20931049791683 49.0C-10.174425414930694 35.0 4.069770165972277 24.5 9.156982873437624 21.0C7.122097790451486 3.5 32.558161327778215 0.0 42.732586742708904 7.0C50.87212707465346 -3.5 76.3081906119802 0.0 76.3081906119802 10.5C96.65704144184157 7.0 104.79658177378613 21.0 96.65704144184157 38.5C103.77913923229306 52.5 96.65704144184157 70.0 73.25586298750099 63.0C68.16865028003565 72.10000000000001 47.81979945017425 72.10000000000001 42.732586742708904 63.0C32.558161327778215 70.0 12.20931049791683 66.5 12.20931049791683 49.0Z" stroke="#323232" stroke-width="2.0" stroke-dasharray="none" opacity="1.0" fill="#b3ff66"/><g id="ProcessOnG1022" transform="matrix(1.0,0.0,0.0,1.0,10.0,26.875)"><text id="ProcessOnText1023" fill="#000000" font-size="13" x="39.87212707465346" y="13.325" font-family="Tahoma" font-weight="normal" font-style="normal" text-decoration="none" family="Tahoma" text-anchor="middle" size="13">https://a.com</text></g></g><g id="ProcessOnG1024"><path id="ProcessOnPath1025" d="M662.0045072063778 280.95454545454635L714.7512386443153 280.9545454545469" stroke="#323232" stroke-width="2.0" stroke-dasharray="none" fill="none" marker-start="url(#ProcessOnMarker1026)" marker-end="url(#ProcessOnMarker1028)"/></g><g id="ProcessOnG1030" transform="matrix(1.0,0.0,0.0,1.0,396.7684392288779,251.86363636363694)" opacity="1.0"><path id="ProcessOnPath1031" d="M0.0 0.0L76.0 0.0L76.0 58.18181818181802L0.0 58.18181818181802Z" stroke="#323232" stroke-width="2.0" stroke-dasharray="none" opacity="1.0" fill="#ffffff"/><g id="ProcessOnG1032" transform="matrix(1.0,0.0,0.0,1.0,10.0,12.840909090909008)"><text id="ProcessOnText1033" fill="#000000" font-size="13" x="27.0" y="13.325" font-family="Tahoma" font-weight="normal" font-style="normal" text-decoration="none" family="Tahoma" text-anchor="middle" size="13">sw</text><text id="ProcessOnText1034" fill="#000000" font-size="13" x="27.0" y="29.575" font-family="Tahoma" font-weight="normal" font-style="normal" text-decoration="none" family="Tahoma" text-anchor="middle" size="13">helper</text></g></g><g id="ProcessOnG1035"><path id="ProcessOnPath1036" d="M516.6573712513781 280.9545454545462L472.7684392288779 280.9545454545462" stroke="#323232" stroke-width="2.0" stroke-dasharray="none" fill="none" marker-start="url(#ProcessOnMarker1037)"/></g><g id="ProcessOnG1039" transform="matrix(1.0,0.0,0.0,1.0,465.7299776904165,256.3994120068487)" opacity="1.0"><path id="ProcessOnPath1040" d="M0.0 0.0L69.125 0.0L69.125 20.0L0.0 20.0Z" stroke="none" stroke-width="0.0" stroke-dasharray="none" opacity="1.0" fill="none"/><g id="ProcessOnG1041" transform="matrix(1.0,0.0,0.0,1.0,0.0,1.875)"><text id="ProcessOnText1042" fill="#000000" font-size="13" x="33.5625" y="13.325" font-family="Tahoma" font-weight="bold" font-style="normal" text-decoration="none" family="Tahoma" text-anchor="middle" size="13">msg</text></g></g><g id="ProcessOnG1043" transform="matrix(1.0,0.0,0.0,1.0,660.7684392288779,256.3994120068485)" opacity="1.0"><path id="ProcessOnPath1044" d="M0.0 0.0L69.125 0.0L69.125 20.0L0.0 20.0Z" stroke="none" stroke-width="0.0" stroke-dasharray="none" opacity="1.0" fill="none"/><g id="ProcessOnG1045" transform="matrix(1.0,0.0,0.0,1.0,0.0,1.875)"><text id="ProcessOnText1046" fill="#000000" font-size="13" x="33.5625" y="13.325" font-family="Tahoma" font-weight="bold" font-style="normal" text-decoration="none" family="Tahoma" text-anchor="middle" size="13">ajax</text></g></g><g id="ProcessOnG1047" transform="matrix(1.0,0.0,0.0,1.0,380.35934831978693,360.386363636366)" opacity="1.0"><path id="ProcessOnPath1048" d="M0.0 0.0L291.45454545454544 0.0L291.45454545454544 28.522727272725206L0.0 28.522727272725206Z" stroke="#323232" stroke-width="2.0" stroke-dasharray="none" opacity="1.0" fill="#cfcfcf"/><g id="ProcessOnG1049" transform="matrix(1.0,0.0,0.0,1.0,10.0,6.136363636362603)"><text id="ProcessOnText1050" fill="#000000" font-size="13" x="134.72727272727272" y="13.325" font-family="Tahoma" font-weight="normal" font-style="normal" text-decoration="none" family="Tahoma" text-anchor="middle" size="13">SW</text></g></g><g id="ProcessOnG1051"><path id="ProcessOnPath1052" d="M434.81187453185225 325.28146060969163L434.9123654932548 360.5311490539941" stroke="#323232" stroke-width="2.0" stroke-dasharray="none" fill="none" marker-start="url(#ProcessOnMarker1053)"/></g><g id="ProcessOnG1055" transform="matrix(1.0,0.0,0.0,1.0,449.8253107711221,327.65034965035125)" opacity="1.0"><path id="ProcessOnPath1056" d="M0.0 0.0L125.8125 0.0L125.8125 32.30769230769238L0.0 32.30769230769238Z" stroke="none" stroke-width="0.0" stroke-dasharray="none" opacity="1.0" fill="none"/><g id="ProcessOnG1057" transform="matrix(1.0,0.0,0.0,1.0,0.0,8.028846153846189)"><text id="ProcessOnText1058" fill="#000000" font-size="13" x="61.90625" y="13.325" font-family="Tahoma" font-weight="normal" font-style="normal" text-decoration="none" family="Tahoma" text-anchor="middle" size="13">MessageChannel</text></g></g><g id="ProcessOnG1059"><path id="ProcessOnPath1060" d="M572.8982274377888 322.63000737143994L572.8982274377888 334.0606060606067L572.8982274377888 334.0606060606067L572.8982274377888 360.7272727272732" stroke="#323232" stroke-width="2.0" stroke-dasharray="none" fill="none" marker-start="url(#ProcessOnMarker1061)"/></g><g id="ProcessOnG1063"><path id="ProcessOnPath1064" d="M613.731560771122 307.9242424242427L613.731560771122 334.3257575757582L613.7315607711221 334.3257575757582L613.7315607711221 345.49120474977343" stroke="#323232" stroke-width="2.0" stroke-dasharray="none" fill="none" marker-end="url(#ProcessOnMarker1065)"/></g></g></g></svg>