<svg xmlns="http://www.w3.org/2000/svg" xmlns:xlink="http://www.w3.org/1999/xlink" id="processonSvg1000" viewBox="364.8125 194.17512519999696 480.375 207.64974960000586" width="480.375" height="207.64974960000586"><defs id="ProcessOnDefs1001"><marker id="ProcessOnMarker1021" markerUnits="userSpaceOnUse" orient="auto" markerWidth="16.23606797749979" markerHeight="10.550836550532098" viewBox="-1.0 -1.3763819204711736 16.23606797749979 10.550836550532098" refX="15.23606797749979" refY="3.8990363547948754"><path id="ProcessOnPath1022" d="M12.0 3.8990363547948754L0.0 7.798072709589751V0.0Z" stroke="#323232" stroke-width="2.0" fill="#323232" transform="matrix(-1.0,1.2246467991473532E-16,-1.2246467991473532E-16,-1.0,14.23606797749979,7.798072709589751)"/></marker><marker id="ProcessOnMarker1023" markerUnits="userSpaceOnUse" orient="auto" markerWidth="16.23606797749979" markerHeight="10.550836550532098" viewBox="-1.0 -1.3763819204711736 16.23606797749979 10.550836550532098" refX="-1.0" refY="3.8990363547948754"><path id="ProcessOnPath1024" d="M12.0 3.8990363547948754L0.0 7.798072709589751V0.0Z" stroke="#323232" stroke-width="2.0" fill="#323232" transform="matrix(1.0,0.0,0.0,1.0,0.0,0.0)"/></marker></defs><g id="ProcessOnG1002"><path id="ProcessOnPath1003" d="M364.8125 194.17512519999696H845.1875V401.8248748000028H364.8125V194.17512519999696Z" fill="none"/><g id="ProcessOnG1004"><g id="ProcessOnG1005" transform="matrix(1.0,0.0,0.0,1.0,384.8125,214.17512519999696)" opacity="1.0"><path id="ProcessOnPath1006" d="M0.0 4.0Q0.0 0.0 4.0 0.0L179.3173243161325 0.0Q183.3173243161325 0.0 183.3173243161325 4.0L183.3173243161325 96.83333333333348Q183.3173243161325 100.83333333333348 179.3173243161325 100.83333333333348L4.0 100.83333333333348Q0.0 100.83333333333348 0.0 96.83333333333348Z" stroke="#dadada" stroke-width="2.0" stroke-dasharray="none" opacity="1.0" fill="#ffffff"/><path id="ProcessOnPath1007" d="M0.0 30.0L0.0 4.0Q0.0 0.0 4.0 0.0L179.3173243161325 0.0Q183.3173243161325 0.0 183.3173243161325 4.0L183.3173243161325 30.0Z" stroke="#dadada" stroke-width="2.0" stroke-dasharray="none" opacity="1.0" fill="#dadada"/><path id="ProcessOnPath1008" d="M10.0 15.0C10.0 10.0 18.0 10.0 18.0 15.0C18.0 20.0 10.0 20.0 10.0 15.0Z" stroke="none" stroke-width="0.0" stroke-dasharray="none" opacity="1.0" fill="#ffffff"/><path id="ProcessOnPath1009" d="M23.0 15.0C23.0 10.0 31.0 10.0 31.0 15.0C31.0 20.0 23.0 20.0 23.0 15.0Z" stroke="none" stroke-width="0.0" stroke-dasharray="none" opacity="1.0" fill="#ffffff"/><path id="ProcessOnPath1010" d="M36.0 15.0C36.0 10.0 44.0 10.0 44.0 15.0C44.0 20.0 36.0 20.0 36.0 15.0Z" stroke="none" stroke-width="0.0" stroke-dasharray="none" opacity="1.0" fill="#ffffff"/><path id="ProcessOnPath1011" d="M55.0 9.0Q55.0 5.0 59.0 5.0L174.3173243161325 5.0Q178.3173243161325 5.0 178.3173243161325 9.0L178.3173243161325 21.0Q178.3173243161325 25.0 174.3173243161325 25.0L59.0 25.0Q55.0 25.0 55.0 21.0Z" stroke="none" stroke-width="0.0" stroke-dasharray="none" opacity="1.0" fill="#ffffff"/><path id="ProcessOnPath1012" d="M0.0 0.0L183.3173243161325 0.0L183.3173243161325 100.83333333333348L0.0 100.83333333333348Z" stroke="none" stroke-width="0.0" stroke-dasharray="none" opacity="1.0" fill="none"/><g id="ProcessOnG1013" transform="matrix(1.0,0.0,0.0,1.0,60.0,6.875)"><text id="ProcessOnText1014" fill="#000000" font-size="13" x="0.0" y="13.325" font-family="Tahoma" font-weight="normal" font-style="normal" text-decoration="none" family="Tahoma" text-anchor="start" size="13">https://my-site</text></g></g><g id="ProcessOnG1015" transform="matrix(1.0,0.0,0.0,1.0,721.5625,311.8248748000019)" opacity="1.0"><path id="ProcessOnPath1016" d="M12.434999999999999 49.00000000000063C-10.3625 35.000000000000455 4.1450000000000005 24.500000000000316 9.32625 21.000000000000274C7.253750000000001 3.5000000000000457 33.160000000000004 0.0 43.5225 7.0000000000000915C51.8125 -3.5000000000000457 77.71875 0.0 77.71875 10.500000000000137C98.44375 7.0000000000000915 106.73375 21.000000000000274 98.44375 38.500000000000504C105.6975 52.50000000000068 98.44375 70.00000000000091 74.61 63.00000000000082C69.42875000000001 72.10000000000093 48.70375 72.10000000000093 43.5225 63.00000000000082C33.160000000000004 70.00000000000091 12.434999999999999 66.50000000000087 12.434999999999999 49.00000000000063Z" stroke="#323232" stroke-width="2.0" stroke-dasharray="none" opacity="1.0" fill="#b3ff66"/><g id="ProcessOnG1017" transform="matrix(1.0,0.0,0.0,1.0,10.0,26.875000000000455)"><text id="ProcessOnText1018" fill="#000000" font-size="13" x="40.8125" y="13.325" font-family="Tahoma" font-weight="normal" font-style="normal" text-decoration="none" family="Tahoma" text-anchor="middle" size="13">https://a.com</text></g></g><g id="ProcessOnG1019"><path id="ProcessOnPath1020" d="M583.3658922936323 346.82487480000196L706.3264320225002 346.8248748000023" stroke="#323232" stroke-width="2.0" stroke-dasharray="none" fill="none" marker-start="url(#ProcessOnMarker1021)" marker-end="url(#ProcessOnMarker1023)"/></g><g id="ProcessOnG1025" transform="matrix(1.0,0.0,0.0,1.0,384.8125000000002,334.38169298182083)" opacity="1.0"><path id="ProcessOnPath1026" d="M0.0 0.0L183.31732431613227 0.0L183.31732431613227 24.886363636363058L0.0 24.886363636363058Z" stroke="#323232" stroke-width="2.0" stroke-dasharray="none" opacity="1.0" fill="#cfcfcf"/><g id="ProcessOnG1027" transform="matrix(1.0,0.0,0.0,1.0,10.0,4.318181818181529)"><text id="ProcessOnText1028" fill="#000000" font-size="13" x="80.65866215806614" y="13.325" font-family="Tahoma" font-weight="normal" font-style="normal" text-decoration="none" family="Tahoma" text-anchor="middle" size="13">SW</text></g></g><g id="ProcessOnG1029" transform="matrix(1.0,0.0,0.0,1.0,600.8929250219267,349.8264885807198)" opacity="1.0"><path id="ProcessOnPath1030" d="M0.0 0.0L97.33914995614668 0.0L97.33914995614668 22.136643795039163L0.0 22.136643795039163Z" stroke="none" stroke-width="0.0" stroke-dasharray="none" opacity="1.0" fill="none"/><g id="ProcessOnG1031" transform="matrix(1.0,0.0,0.0,1.0,0.0,2.9433218975195814)"><text id="ProcessOnText1032" fill="#000000" font-size="13" x="47.66957497807334" y="13.325" font-family="Tahoma" font-weight="bold" font-style="normal" text-decoration="none" family="Tahoma" text-anchor="middle" size="13">importScripts</text></g></g><g id="ProcessOnG1033" transform="matrix(1.0,0.0,0.0,1.0,577.9375,237.05376130799232)" opacity="1.0"><path id="ProcessOnPath1034" d="M0.0 0.0L163.75 0.0L179.75 16.0L179.75 69.18181818181893L0.0 69.18181818181893L0.0 0.0Z" stroke="none" stroke-width="0.0" stroke-dasharray="none" opacity="1.0" fill="#ffffaa"/><path id="ProcessOnPath1035" d="M163.75 0.0L163.75 16.0L179.75 16.0Z" stroke="none" stroke-width="0.0" stroke-dasharray="none" opacity="1.0" fill="#cdcd78"/><path id="ProcessOnPath1036" d="M0.0 0.0L163.75 0.0L179.75 16.0L179.75 69.18181818181893L0.0 69.18181818181893L0.0 0.0Z" stroke="none" stroke-width="0.0" stroke-dasharray="none" opacity="1.0" fill="none"/><g id="ProcessOnG1037" transform="matrix(1.0,0.0,0.0,1.0,10.0,10.0)"><text id="ProcessOnText1038" fill="#000000" font-size="13" x="0.0" y="13.325" font-family="Tahoma" font-weight="normal" font-style="normal" text-decoration="none" family="Tahoma" text-anchor="start" size="13">callback('1.png',</text><text id="ProcessOnText1039" fill="#000000" font-size="13" x="0.0" y="29.575" font-family="Tahoma" font-weight="normal" font-style="normal" text-decoration="none" family="Tahoma" text-anchor="start" size="13">'iVBORw0KGgoAAAANSUhE</text><text id="ProcessOnText1040" fill="#000000" font-size="13" x="0.0" y="45.825" font-family="Tahoma" font-weight="normal" font-style="normal" text-decoration="none" family="Tahoma" text-anchor="start" size="13">UgAAAHUA0lEQVR4......')</text></g></g></g></g></svg>