<svg xmlns="http://www.w3.org/2000/svg" xmlns:xlink="http://www.w3.org/1999/xlink" id="processonSvg1000" viewBox="337.5625 216.68209834049367 534.875 162.63580331901267" width="534.875" height="162.63580331901267"><defs id="ProcessOnDefs1001"><marker id="ProcessOnMarker1026" markerUnits="userSpaceOnUse" orient="auto" markerWidth="16.23606797749979" markerHeight="10.550836550532098" viewBox="-1.0 -1.3763819204711736 16.23606797749979 10.550836550532098" refX="15.23606797749979" refY="3.8990363547948754"><path id="ProcessOnPath1027" d="M12.0 3.8990363547948754L0.0 7.798072709589751V0.0Z" stroke="#323232" stroke-width="2.0" fill="#323232" transform="matrix(-1.0,1.2246467991473532E-16,-1.2246467991473532E-16,-1.0,14.23606797749979,7.798072709589751)"/></marker><marker id="ProcessOnMarker1035" markerUnits="userSpaceOnUse" orient="auto" markerWidth="16.23606797749979" markerHeight="10.550836550532098" viewBox="-1.0 -1.3763819204711736 16.23606797749979 10.550836550532098" refX="-1.0" refY="3.8990363547948754"><path id="ProcessOnPath1036" d="M12.0 3.8990363547948754L0.0 7.798072709589751V0.0Z" stroke="#323232" stroke-width="2.0" fill="#323232" transform="matrix(1.0,0.0,0.0,1.0,0.0,0.0)"/></marker></defs><g id="ProcessOnG1002"><path id="ProcessOnPath1003" d="M337.5625 216.68209834049367H872.4375V379.31790165950633H337.5625V216.68209834049367Z" fill="none"/><g id="ProcessOnG1004"><g id="ProcessOnG1005" transform="matrix(1.0,0.0,0.0,1.0,357.5625,236.68209834049367)" opacity="1.0"><path id="ProcessOnPath1006" d="M0.0 4.0Q0.0 0.0 4.0 0.0L326.875 0.0Q330.875 0.0 330.875 4.0L330.875 118.63580331901267Q330.875 122.63580331901267 326.875 122.63580331901267L4.0 122.63580331901267Q0.0 122.63580331901267 0.0 118.63580331901267Z" stroke="#dadada" stroke-width="2.0" stroke-dasharray="none" opacity="1.0" fill="#ffffff"/><path id="ProcessOnPath1007" d="M0.0 30.0L0.0 4.0Q0.0 0.0 4.0 0.0L326.875 0.0Q330.875 0.0 330.875 4.0L330.875 30.0Z" stroke="#dadada" stroke-width="2.0" stroke-dasharray="none" opacity="1.0" fill="#dadada"/><path id="ProcessOnPath1008" d="M10.0 15.0C10.0 10.0 18.0 10.0 18.0 15.0C18.0 20.0 10.0 20.0 10.0 15.0Z" stroke="none" stroke-width="0.0" stroke-dasharray="none" opacity="1.0" fill="#ffffff"/><path id="ProcessOnPath1009" d="M23.0 15.0C23.0 10.0 31.0 10.0 31.0 15.0C31.0 20.0 23.0 20.0 23.0 15.0Z" stroke="none" stroke-width="0.0" stroke-dasharray="none" opacity="1.0" fill="#ffffff"/><path id="ProcessOnPath1010" d="M36.0 15.0C36.0 10.0 44.0 10.0 44.0 15.0C44.0 20.0 36.0 20.0 36.0 15.0Z" stroke="none" stroke-width="0.0" stroke-dasharray="none" opacity="1.0" fill="#ffffff"/><path id="ProcessOnPath1011" d="M55.0 9.0Q55.0 5.0 59.0 5.0L321.875 5.0Q325.875 5.0 325.875 9.0L325.875 21.0Q325.875 25.0 321.875 25.0L59.0 25.0Q55.0 25.0 55.0 21.0Z" stroke="none" stroke-width="0.0" stroke-dasharray="none" opacity="1.0" fill="#ffffff"/><path id="ProcessOnPath1012" d="M0.0 0.0L330.875 0.0L330.875 122.63580331901267L0.0 122.63580331901267Z" stroke="none" stroke-width="0.0" stroke-dasharray="none" opacity="1.0" fill="none"/><g id="ProcessOnG1013" transform="matrix(1.0,0.0,0.0,1.0,60.0,6.875)"><text id="ProcessOnText1014" fill="#000000" font-size="13" x="0.0" y="13.325" font-family="Tahoma" font-weight="normal" font-style="normal" text-decoration="none" family="Tahoma" text-anchor="start" size="13">https://my-site</text></g></g><g id="ProcessOnG1015" transform="matrix(1.0,0.0,0.0,1.0,548.0625,283.95482561322115)" opacity="1.0"><path id="ProcessOnPath1016" d="M0.0 0.0L114.875 0.0L114.875 53.181818181818244L0.0 53.181818181818244Z" stroke="#323232" stroke-width="2.0" stroke-dasharray="none" opacity="1.0" fill="#b3ff66"/><g id="ProcessOnG1017" transform="matrix(1.0,0.0,0.0,1.0,10.0,10.340909090909122)"><text id="ProcessOnText1018" fill="#000000" font-size="13" x="46.4375" y="13.325" font-family="Tahoma" font-weight="normal" font-style="normal" text-decoration="none" family="Tahoma" text-anchor="middle" size="13">Image</text><text id="ProcessOnText1019" fill="#000000" font-size="13" x="46.4375" y="29.575" font-family="Tahoma" font-weight="normal" font-style="normal" text-decoration="none" family="Tahoma" text-anchor="middle" size="13">(crossOrigin)</text></g></g><g id="ProcessOnG1020" transform="matrix(1.0,0.0,0.0,1.0,750.1563673929372,275.54573470413015)" opacity="1.0"><path id="ProcessOnPath1021" d="M12.273735912847533 49.0C-10.228113260706278 35.0 4.091245304282511 24.5 9.20530193463565 21.0C7.159679282494395 3.5 32.72996243426009 0.0 42.95807569496636 7.0C51.140566303531386 -3.5 76.71084945529708 0.0 76.71084945529708 10.5C97.16707597670963 7.0 105.34956658527466 21.0 97.16707597670963 38.5C104.32675525920403 52.5 97.16707597670963 70.0 73.6424154770852 63.0C68.52835884673206 72.10000000000001 48.0721323253195 72.10000000000001 42.95807569496636 63.0C32.72996243426009 70.0 12.273735912847533 66.5 12.273735912847533 49.0Z" stroke="#323232" stroke-width="2.0" stroke-dasharray="none" opacity="1.0" fill="#ffff33"/><g id="ProcessOnG1022" transform="matrix(1.0,0.0,0.0,1.0,10.0,26.875)"><text id="ProcessOnText1023" fill="#000000" font-size="13" x="40.140566303531386" y="13.325" font-family="Tahoma" font-weight="normal" font-style="normal" text-decoration="none" family="Tahoma" text-anchor="middle" size="13">http://a.com</text></g></g><g id="ProcessOnG1024"><path id="ProcessOnPath1025" d="M678.1735679774998 310.54573470413015L750.1563673929372 310.54573470413015" stroke="#323232" stroke-width="2.0" stroke-dasharray="none" fill="none" marker-start="url(#ProcessOnMarker1026)"/></g><g id="ProcessOnG1028" transform="matrix(1.0,0.0,0.0,1.0,372.4375,281.45482561322115)" opacity="1.0"><path id="ProcessOnPath1029" d="M0.0 0.0L113.5 0.0L113.5 58.18181818181802L0.0 58.18181818181802Z" stroke="#323232" stroke-width="2.0" stroke-dasharray="none" opacity="1.0" fill="#e5e5e5"/><g id="ProcessOnG1030" transform="matrix(1.0,0.0,0.0,1.0,10.0,12.840909090909008)"><text id="ProcessOnText1031" fill="#000000" font-size="13" x="45.75" y="13.325" font-family="Tahoma" font-weight="normal" font-style="normal" text-decoration="none" family="Tahoma" text-anchor="middle" size="13">canvas</text><text id="ProcessOnText1032" fill="#000000" font-size="13" x="45.75" y="29.575" font-family="Tahoma" font-weight="normal" font-style="normal" text-decoration="none" family="Tahoma" text-anchor="middle" size="13">(getImageData)</text></g></g><g id="ProcessOnG1033"><path id="ProcessOnPath1034" d="M548.0625 310.54573470413015L501.1735679774998 310.54573470413015" stroke="#323232" stroke-width="2.0" stroke-dasharray="none" fill="none" marker-end="url(#ProcessOnMarker1035)"/></g><g id="ProcessOnG1037" transform="matrix(1.0,0.0,0.0,1.0,685.9375,288.0)" opacity="1.0"><path id="ProcessOnPath1038" d="M0.0 0.0L69.125 0.0L69.125 20.0L0.0 20.0Z" stroke="none" stroke-width="0.0" stroke-dasharray="none" opacity="1.0" fill="none"/><g id="ProcessOnG1039" transform="matrix(1.0,0.0,0.0,1.0,0.0,1.875)"><text id="ProcessOnText1040" fill="#000000" font-size="13" x="33.5625" y="13.325" font-family="Tahoma" font-weight="bold" font-style="normal" text-decoration="none" family="Tahoma" text-anchor="middle" size="13">acao: *</text></g></g><g id="ProcessOnG1041" transform="matrix(1.0,0.0,0.0,1.0,488.4375,288.0)" opacity="1.0"><path id="ProcessOnPath1042" d="M0.0 0.0L69.125 0.0L69.125 20.0L0.0 20.0Z" stroke="none" stroke-width="0.0" stroke-dasharray="none" opacity="1.0" fill="none"/><g id="ProcessOnG1043" transform="matrix(1.0,0.0,0.0,1.0,0.0,1.875)"><text id="ProcessOnText1044" fill="#000000" font-size="13" x="33.5625" y="13.325" font-family="Tahoma" font-weight="bold" font-style="normal" text-decoration="none" family="Tahoma" text-anchor="middle" size="13">draw</text></g></g></g></g></svg>